%TF.GenerationSoftware,KiCad,Pcbnew,7.0.2-0*%
%TF.CreationDate,2023-11-14T20:22:56-05:00*%
%TF.ProjectId,A2 Percussion Desktop,41322050-6572-4637-9573-73696f6e2044,rev?*%
%TF.SameCoordinates,Original*%
%TF.FileFunction,Copper,L1,Top*%
%TF.FilePolarity,Positive*%
%FSLAX46Y46*%
G04 Gerber Fmt 4.6, Leading zero omitted, Abs format (unit mm)*
G04 Created by KiCad (PCBNEW 7.0.2-0) date 2023-11-14 20:22:56*
%MOMM*%
%LPD*%
G01*
G04 APERTURE LIST*
G04 Aperture macros list*
%AMOutline5P*
0 Free polygon, 5 corners , with rotation*
0 The origin of the aperture is its center*
0 number of corners: always 5*
0 $1 to $10 corner X, Y*
0 $11 Rotation angle, in degrees counterclockwise*
0 create outline with 5 corners*
4,1,5,$1,$2,$3,$4,$5,$6,$7,$8,$9,$10,$1,$2,$11*%
%AMOutline6P*
0 Free polygon, 6 corners , with rotation*
0 The origin of the aperture is its center*
0 number of corners: always 6*
0 $1 to $12 corner X, Y*
0 $13 Rotation angle, in degrees counterclockwise*
0 create outline with 6 corners*
4,1,6,$1,$2,$3,$4,$5,$6,$7,$8,$9,$10,$11,$12,$1,$2,$13*%
%AMOutline7P*
0 Free polygon, 7 corners , with rotation*
0 The origin of the aperture is its center*
0 number of corners: always 7*
0 $1 to $14 corner X, Y*
0 $15 Rotation angle, in degrees counterclockwise*
0 create outline with 7 corners*
4,1,7,$1,$2,$3,$4,$5,$6,$7,$8,$9,$10,$11,$12,$13,$14,$1,$2,$15*%
%AMOutline8P*
0 Free polygon, 8 corners , with rotation*
0 The origin of the aperture is its center*
0 number of corners: always 8*
0 $1 to $16 corner X, Y*
0 $17 Rotation angle, in degrees counterclockwise*
0 create outline with 8 corners*
4,1,8,$1,$2,$3,$4,$5,$6,$7,$8,$9,$10,$11,$12,$13,$14,$15,$16,$1,$2,$17*%
G04 Aperture macros list end*
%TA.AperFunction,ComponentPad*%
%ADD10R,1.600000X1.600000*%
%TD*%
%TA.AperFunction,ComponentPad*%
%ADD11C,1.600000*%
%TD*%
%TA.AperFunction,ComponentPad*%
%ADD12O,1.600000X1.600000*%
%TD*%
%TA.AperFunction,ComponentPad*%
%ADD13O,1.700000X1.700000*%
%TD*%
%TA.AperFunction,ComponentPad*%
%ADD14C,1.676400*%
%TD*%
%TA.AperFunction,ComponentPad*%
%ADD15R,2.800000X2.800000*%
%TD*%
%TA.AperFunction,ComponentPad*%
%ADD16C,1.650000*%
%TD*%
%TA.AperFunction,ComponentPad*%
%ADD17Outline8P,-0.660400X0.273547X-0.273547X0.660400X0.273547X0.660400X0.660400X0.273547X0.660400X-0.273547X0.273547X-0.660400X-0.273547X-0.660400X-0.660400X-0.273547X180.000000*%
%TD*%
%TA.AperFunction,ComponentPad*%
%ADD18C,1.397000*%
%TD*%
%TA.AperFunction,ComponentPad*%
%ADD19R,1.300000X1.300000*%
%TD*%
%TA.AperFunction,ComponentPad*%
%ADD20C,1.300000*%
%TD*%
%TA.AperFunction,ViaPad*%
%ADD21C,0.600000*%
%TD*%
%TA.AperFunction,Conductor*%
%ADD22C,0.200000*%
%TD*%
G04 APERTURE END LIST*
D10*
%TO.P,C4,1*%
%TO.N,+12V*%
X121920000Y-12700000D03*
D11*
%TO.P,C4,2*%
%TO.N,GND*%
X119420000Y-12700000D03*
%TD*%
D12*
%TO.P,D4,2,A*%
%TO.N,Net-(D4-A)*%
X114300000Y-31750000D03*
D10*
%TO.P,D4,1,K*%
%TO.N,+12V*%
X114300000Y-24130000D03*
%TD*%
D13*
%TO.P,J1,10,-12V*%
%TO.N,-12V*%
X119380000Y-30480000D03*
%TO.P,J1,9,-12V*%
%TO.N,unconnected-(J1--12V-Pad9)*%
X121920000Y-30480000D03*
%TO.P,J1,8,GND*%
%TO.N,unconnected-(J1-GND-Pad8)*%
X119380000Y-27940000D03*
%TO.P,J1,7,GND*%
%TO.N,GND*%
X121920000Y-27940000D03*
%TO.P,J1,6,GND*%
%TO.N,unconnected-(J1-GND-Pad6)*%
X119380000Y-25400000D03*
%TO.P,J1,5,GND*%
%TO.N,GND*%
X121920000Y-25400000D03*
%TO.P,J1,4,GND*%
%TO.N,unconnected-(J1-GND-Pad4)*%
X119380000Y-22860000D03*
%TO.P,J1,3,GND*%
%TO.N,GND*%
X121920000Y-22860000D03*
%TO.P,J1,2,+12V*%
%TO.N,Net-(D4-A)*%
X119380000Y-20320000D03*
%TO.P,J1,1,+12V*%
%TO.N,unconnected-(J1-+12V-Pad1)*%
X121920000Y-20320000D03*
%TD*%
D11*
%TO.P,C3,2,2*%
%TO.N,GND*%
X132190500Y-33017100D03*
%TO.P,C3,1,1*%
%TO.N,+5V*%
X127190500Y-33017100D03*
%TD*%
%TO.P,C2,1,1*%
%TO.N,+12V*%
X127080000Y-28020000D03*
%TO.P,C2,2,2*%
%TO.N,GND*%
X132080000Y-28020000D03*
%TD*%
D14*
%TO.P,Shape_3,1,A*%
%TO.N,GND*%
X109500000Y-86000000D03*
%TO.P,Shape_3,2,S*%
%TO.N,Shape3*%
X112000000Y-86000000D03*
%TO.P,Shape_3,3,E*%
%TO.N,3v3*%
X114500000Y-86000000D03*
D15*
%TO.P,Shape_3,M1*%
%TO.N,N/C*%
X116500000Y-79000000D03*
%TO.P,Shape_3,M2*%
X107500000Y-79000000D03*
%TD*%
D14*
%TO.P,Pitch_2,1,A*%
%TO.N,GND*%
X62500000Y-60600000D03*
%TO.P,Pitch_2,2,S*%
%TO.N,Pitch2*%
X65000000Y-60600000D03*
%TO.P,Pitch_2,3,E*%
%TO.N,3v3*%
X67500000Y-60600000D03*
D15*
%TO.P,Pitch_2,M1*%
%TO.N,N/C*%
X69500000Y-53600000D03*
%TO.P,Pitch_2,M2*%
X60500000Y-53600000D03*
%TD*%
D16*
%TO.P,RightAudio1,P$1,2*%
%TO.N,RightAudio*%
X135890000Y-10500000D03*
%TO.P,RightAudio1,P$2,3*%
%TO.N,unconnected-(RightAudio1-3-PadP$2)*%
X135890000Y-19000000D03*
%TO.P,RightAudio1,P$3,1*%
%TO.N,GND*%
X135890000Y-22000000D03*
%TD*%
%TO.P,TRIG3,P$1,2*%
%TO.N,Net-(TRIG3-2)*%
X74930000Y-10500000D03*
%TO.P,TRIG3,P$2,3*%
%TO.N,unconnected-(TRIG3-3-PadP$2)*%
X74930000Y-19000000D03*
%TO.P,TRIG3,P$3,1*%
%TO.N,GND*%
X74930000Y-22000000D03*
%TD*%
D14*
%TO.P,Temp_1,1,A*%
%TO.N,GND*%
X35500000Y-86000000D03*
%TO.P,Temp_1,2,S*%
%TO.N,Temp1*%
X38000000Y-86000000D03*
%TO.P,Temp_1,3,E*%
%TO.N,3v3*%
X40500000Y-86000000D03*
D15*
%TO.P,Temp_1,M1*%
%TO.N,N/C*%
X42500000Y-79000000D03*
%TO.P,Temp_1,M2*%
X33500000Y-79000000D03*
%TD*%
D14*
%TO.P,Vol_1,1,A*%
%TO.N,GND*%
X35500000Y-60600000D03*
%TO.P,Vol_1,2,S*%
%TO.N,Vol_01*%
X38000000Y-60600000D03*
%TO.P,Vol_1,3,E*%
%TO.N,3v3*%
X40500000Y-60600000D03*
D15*
%TO.P,Vol_1,M1*%
%TO.N,N/C*%
X42500000Y-53600000D03*
%TO.P,Vol_1,M2*%
X33500000Y-53600000D03*
%TD*%
D14*
%TO.P,Temp_2,1,A*%
%TO.N,GND*%
X82500000Y-86000000D03*
%TO.P,Temp_2,2,S*%
%TO.N,Temp2*%
X85000000Y-86000000D03*
%TO.P,Temp_2,3,E*%
%TO.N,3v3*%
X87500000Y-86000000D03*
D15*
%TO.P,Temp_2,M1*%
%TO.N,N/C*%
X89500000Y-79000000D03*
%TO.P,Temp_2,M2*%
X80500000Y-79000000D03*
%TD*%
D14*
%TO.P,Motion_2,1,A*%
%TO.N,GND*%
X62500000Y-111400000D03*
%TO.P,Motion_2,2,S*%
%TO.N,Motion2*%
X65000000Y-111400000D03*
%TO.P,Motion_2,3,E*%
%TO.N,3v3*%
X67500000Y-111400000D03*
D15*
%TO.P,Motion_2,M1*%
%TO.N,N/C*%
X69500000Y-104400000D03*
%TO.P,Motion_2,M2*%
X60500000Y-104400000D03*
%TD*%
D16*
%TO.P,LeftAudio1,P$1,2*%
%TO.N,LeftAudio*%
X105410000Y-10500000D03*
%TO.P,LeftAudio1,P$2,3*%
%TO.N,unconnected-(LeftAudio1-3-PadP$2)*%
X105410000Y-19000000D03*
%TO.P,LeftAudio1,P$3,1*%
%TO.N,GND*%
X105410000Y-22000000D03*
%TD*%
D14*
%TO.P,Motion_1,1,A*%
%TO.N,GND*%
X15500000Y-111400000D03*
%TO.P,Motion_1,2,S*%
%TO.N,Motion1*%
X18000000Y-111400000D03*
%TO.P,Motion_1,3,E*%
%TO.N,3v3*%
X20500000Y-111400000D03*
D15*
%TO.P,Motion_1,M1*%
%TO.N,N/C*%
X22500000Y-104400000D03*
%TO.P,Motion_1,M2*%
X13500000Y-104400000D03*
%TD*%
D14*
%TO.P,Temp_3,1,A*%
%TO.N,GND*%
X129500000Y-86000000D03*
%TO.P,Temp_3,2,S*%
%TO.N,Temp3*%
X132000000Y-86000000D03*
%TO.P,Temp_3,3,E*%
%TO.N,3v3*%
X134500000Y-86000000D03*
D15*
%TO.P,Temp_3,M1*%
%TO.N,N/C*%
X136500000Y-79000000D03*
%TO.P,Temp_3,M2*%
X127500000Y-79000000D03*
%TD*%
D14*
%TO.P,Traffic_1,1,A*%
%TO.N,GND*%
X35500000Y-111400000D03*
%TO.P,Traffic_1,2,S*%
%TO.N,Traffic1*%
X38000000Y-111400000D03*
%TO.P,Traffic_1,3,E*%
%TO.N,3v3*%
X40500000Y-111400000D03*
D15*
%TO.P,Traffic_1,M1*%
%TO.N,N/C*%
X42500000Y-104400000D03*
%TO.P,Traffic_1,M2*%
X33500000Y-104400000D03*
%TD*%
D14*
%TO.P,Vol_2,1,A*%
%TO.N,GND*%
X82500000Y-60600000D03*
%TO.P,Vol_2,2,S*%
%TO.N,Vol_02*%
X85000000Y-60600000D03*
%TO.P,Vol_2,3,E*%
%TO.N,3v3*%
X87500000Y-60600000D03*
D15*
%TO.P,Vol_2,M1*%
%TO.N,N/C*%
X89500000Y-53600000D03*
%TO.P,Vol_2,M2*%
X80500000Y-53600000D03*
%TD*%
D16*
%TO.P,TRIG1,P$1,2*%
%TO.N,Net-(TRIG1-2)*%
X13970000Y-10500000D03*
%TO.P,TRIG1,P$2,3*%
%TO.N,unconnected-(TRIG1-3-PadP$2)*%
X13970000Y-19000000D03*
%TO.P,TRIG1,P$3,1*%
%TO.N,GND*%
X13970000Y-22000000D03*
%TD*%
D14*
%TO.P,Pitch_1,1,A*%
%TO.N,GND*%
X15500000Y-60600000D03*
%TO.P,Pitch_1,2,S*%
%TO.N,Pitch1*%
X18000000Y-60600000D03*
%TO.P,Pitch_1,3,E*%
%TO.N,3v3*%
X20500000Y-60600000D03*
D15*
%TO.P,Pitch_1,M1*%
%TO.N,N/C*%
X22500000Y-53600000D03*
%TO.P,Pitch_1,M2*%
X13500000Y-53600000D03*
%TD*%
D14*
%TO.P,Vol_3,1,A*%
%TO.N,GND*%
X129500000Y-60600000D03*
%TO.P,Vol_3,2,S*%
%TO.N,Vol_03*%
X132000000Y-60600000D03*
%TO.P,Vol_3,3,E*%
%TO.N,3v3*%
X134500000Y-60600000D03*
D15*
%TO.P,Vol_3,M1*%
%TO.N,N/C*%
X136500000Y-53600000D03*
%TO.P,Vol_3,M2*%
X127500000Y-53600000D03*
%TD*%
D14*
%TO.P,Shape_1,1,A*%
%TO.N,GND*%
X15500000Y-86000000D03*
%TO.P,Shape_1,2,S*%
%TO.N,Shape1*%
X18000000Y-86000000D03*
%TO.P,Shape_1,3,E*%
%TO.N,3v3*%
X20500000Y-86000000D03*
D15*
%TO.P,Shape_1,M1*%
%TO.N,N/C*%
X22500000Y-79000000D03*
%TO.P,Shape_1,M2*%
X13500000Y-79000000D03*
%TD*%
D16*
%TO.P,TRIG2,P$1,2*%
%TO.N,Net-(TRIG2-2)*%
X44450000Y-10500000D03*
%TO.P,TRIG2,P$2,3*%
%TO.N,unconnected-(TRIG2-3-PadP$2)*%
X44450000Y-19000000D03*
%TO.P,TRIG2,P$3,1*%
%TO.N,GND*%
X44450000Y-22000000D03*
%TD*%
D14*
%TO.P,Motion_3,1,A*%
%TO.N,GND*%
X109500000Y-111400000D03*
%TO.P,Motion_3,2,S*%
%TO.N,Motion3*%
X112000000Y-111400000D03*
%TO.P,Motion_3,3,E*%
%TO.N,3v3*%
X114500000Y-111400000D03*
D15*
%TO.P,Motion_3,M1*%
%TO.N,N/C*%
X116500000Y-104400000D03*
%TO.P,Motion_3,M2*%
X107500000Y-104400000D03*
%TD*%
D14*
%TO.P,Traffic_3,1,A*%
%TO.N,GND*%
X129500000Y-111400000D03*
%TO.P,Traffic_3,2,S*%
%TO.N,Traffic3*%
X132000000Y-111400000D03*
%TO.P,Traffic_3,3,E*%
%TO.N,3v3*%
X134500000Y-111400000D03*
D15*
%TO.P,Traffic_3,M1*%
%TO.N,N/C*%
X136500000Y-104400000D03*
%TO.P,Traffic_3,M2*%
X127500000Y-104400000D03*
%TD*%
D14*
%TO.P,Shape_2,1,A*%
%TO.N,GND*%
X62500000Y-86000000D03*
%TO.P,Shape_2,2,S*%
%TO.N,Shape2*%
X65000000Y-86000000D03*
%TO.P,Shape_2,3,E*%
%TO.N,3v3*%
X67500000Y-86000000D03*
D15*
%TO.P,Shape_2,M1*%
%TO.N,N/C*%
X69500000Y-79000000D03*
%TO.P,Shape_2,M2*%
X60500000Y-79000000D03*
%TD*%
D14*
%TO.P,Pitch_3,1,A*%
%TO.N,GND*%
X109500000Y-60600000D03*
%TO.P,Pitch_3,2,S*%
%TO.N,Pitch3*%
X112000000Y-60600000D03*
%TO.P,Pitch_3,3,E*%
%TO.N,3v3*%
X114500000Y-60600000D03*
D15*
%TO.P,Pitch_3,M1*%
%TO.N,N/C*%
X116500000Y-53600000D03*
%TO.P,Pitch_3,M2*%
X107500000Y-53600000D03*
%TD*%
D14*
%TO.P,Traffic_2,1,A*%
%TO.N,GND*%
X82500000Y-111400000D03*
%TO.P,Traffic_2,2,S*%
%TO.N,Traffic2*%
X85000000Y-111400000D03*
%TO.P,Traffic_2,3,E*%
%TO.N,3v3*%
X87500000Y-111400000D03*
D15*
%TO.P,Traffic_2,M1*%
%TO.N,N/C*%
X89500000Y-104400000D03*
%TO.P,Traffic_2,M2*%
X80500000Y-104400000D03*
%TD*%
D17*
%TO.P,T2,1,C*%
%TO.N,Trig_2*%
X58490400Y-13247600D03*
%TO.P,T2,2,B*%
%TO.N,Net-(D2-K)*%
X59760400Y-11342600D03*
%TO.P,T2,3,E*%
%TO.N,GND*%
X61030400Y-13247600D03*
%TD*%
D10*
%TO.P,D2,1,K*%
%TO.N,Net-(D2-K)*%
X55950400Y-18327600D03*
D12*
%TO.P,D2,2,A*%
%TO.N,GND*%
X63570400Y-18327600D03*
%TD*%
D11*
%TO.P,C7,1*%
%TO.N,Net-(U2-VDD)*%
X144879800Y-44388700D03*
D12*
%TO.P,C7,2*%
%TO.N,GND*%
X137379800Y-44388700D03*
%TD*%
D18*
%TO.P,R5,1,1*%
%TO.N,Trig_2*%
X105410000Y-33280000D03*
%TO.P,R5,2,2*%
%TO.N,3v3*%
X97790000Y-33280000D03*
%TD*%
%TO.P,R3,1,1*%
%TO.N,Net-(TRIG2-2)*%
X86680000Y-33280000D03*
%TO.P,R3,2,2*%
%TO.N,Net-(D2-K)*%
X79060000Y-33280000D03*
%TD*%
D11*
%TO.P,C8,1*%
%TO.N,Net-(U2-LCH)*%
X144907300Y-32357100D03*
D12*
%TO.P,C8,2*%
%TO.N,LeftAudio*%
X137407300Y-32357100D03*
%TD*%
D18*
%TO.P,R1,1,1*%
%TO.N,Net-(TRIG1-2)*%
X86680000Y-25660000D03*
%TO.P,R1,2,2*%
%TO.N,Net-(D3-K)*%
X79060000Y-25660000D03*
%TD*%
D11*
%TO.P,C6,1*%
%TO.N,Net-(U2-VDD)*%
X144780000Y-26690000D03*
D12*
%TO.P,C6,2*%
%TO.N,GND*%
X137280000Y-26690000D03*
%TD*%
D17*
%TO.P,T1,1,C*%
%TO.N,Trig_1*%
X28227600Y-13604300D03*
%TO.P,T1,2,B*%
%TO.N,Net-(D3-K)*%
X29497600Y-11699300D03*
%TO.P,T1,3,E*%
%TO.N,GND*%
X30767600Y-13604300D03*
%TD*%
D18*
%TO.P,R7,1,1*%
%TO.N,Trig_3*%
X105410000Y-40900000D03*
%TO.P,R7,2,2*%
%TO.N,3v3*%
X97790000Y-40900000D03*
%TD*%
%TO.P,R4,1*%
%TO.N,3v3*%
X93980000Y-29470000D03*
%TO.P,R4,2*%
%TO.N,Net-(U2-VDD)*%
X93980000Y-37090000D03*
%TD*%
D10*
%TO.P,U3,1,GND*%
%TO.N,GND*%
X66040000Y-43440000D03*
D11*
%TO.P,U3,2,0_RX1_CRX2_CS1*%
%TO.N,unconnected-(U3-0_RX1_CRX2_CS1-Pad2)*%
X63500000Y-43440000D03*
%TO.P,U3,3,1_TX1_CTX2_MISO1*%
%TO.N,Trig_1*%
X60960000Y-43440000D03*
%TO.P,U3,4,2_OUT2*%
%TO.N,Trig_2*%
X58420000Y-43440000D03*
%TO.P,U3,5,3_LRCLK2*%
%TO.N,Trig_3*%
X55880000Y-43440000D03*
%TO.P,U3,6,4_BCLK2*%
%TO.N,unconnected-(U3-4_BCLK2-Pad6)*%
X53340000Y-43440000D03*
%TO.P,U3,7,5_IN2*%
%TO.N,DIN*%
X50800000Y-43440000D03*
%TO.P,U3,8,6_OUT1D*%
%TO.N,unconnected-(U3-6_OUT1D-Pad8)*%
X48260000Y-43440000D03*
%TO.P,U3,9,7_RX2_OUT1A*%
%TO.N,unconnected-(U3-7_RX2_OUT1A-Pad9)*%
X45720000Y-43440000D03*
%TO.P,U3,10,8_TX2_IN1*%
%TO.N,unconnected-(U3-8_TX2_IN1-Pad10)*%
X43180000Y-43440000D03*
%TO.P,U3,11,9_OUT1C*%
%TO.N,unconnected-(U3-9_OUT1C-Pad11)*%
X40640000Y-43440000D03*
%TO.P,U3,12,10_CS_MQSR*%
%TO.N,unconnected-(U3-10_CS_MQSR-Pad12)*%
X38100000Y-43440000D03*
%TO.P,U3,13,11_MOSI_CTX1*%
%TO.N,unconnected-(U3-11_MOSI_CTX1-Pad13)*%
X35560000Y-43440000D03*
%TO.P,U3,14,12_MISO_MQSL*%
%TO.N,unconnected-(U3-12_MISO_MQSL-Pad14)*%
X33020000Y-43440000D03*
%TO.P,U3,15,3V3*%
%TO.N,3v3*%
X30480000Y-43440000D03*
%TO.P,U3,16,24_A10_TX6_SCL2*%
%TO.N,Motion2*%
X27940000Y-43440000D03*
%TO.P,U3,17,25_A11_RX6_SDA2*%
%TO.N,Motion3*%
X25400000Y-43440000D03*
%TO.P,U3,18,26_A12_MOSI1*%
%TO.N,Traffic1*%
X22860000Y-43440000D03*
%TO.P,U3,19,27_A13_SCK1*%
%TO.N,Traffic2*%
X20320000Y-43440000D03*
%TO.P,U3,20,28_RX7*%
%TO.N,WS*%
X17780000Y-43440000D03*
%TO.P,U3,21,29_TX7*%
%TO.N,BLCK*%
X15240000Y-43440000D03*
%TO.P,U3,22,30_CRX3*%
%TO.N,unconnected-(U3-30_CRX3-Pad22)*%
X12700000Y-43440000D03*
%TO.P,U3,23,31_CTX3*%
%TO.N,unconnected-(U3-31_CTX3-Pad23)*%
X10160000Y-43440000D03*
%TO.P,U3,24,32_OUT1B*%
%TO.N,unconnected-(U3-32_OUT1B-Pad24)*%
X7620000Y-43440000D03*
%TO.P,U3,25,33_MCLK2*%
%TO.N,unconnected-(U3-33_MCLK2-Pad25)*%
X7620000Y-28200000D03*
%TO.P,U3,26,34_RX8*%
%TO.N,unconnected-(U3-34_RX8-Pad26)*%
X10160000Y-28200000D03*
%TO.P,U3,27,35_TX8*%
%TO.N,unconnected-(U3-35_TX8-Pad27)*%
X12700000Y-28200000D03*
%TO.P,U3,28,36_CS*%
%TO.N,unconnected-(U3-36_CS-Pad28)*%
X15240000Y-28200000D03*
%TO.P,U3,29,37_CS*%
%TO.N,unconnected-(U3-37_CS-Pad29)*%
X17780000Y-28200000D03*
%TO.P,U3,30,38_A14_CS1_IN1*%
%TO.N,Traffic3*%
X20320000Y-28200000D03*
%TO.P,U3,31,39_A15_MISO1_OUT1A*%
%TO.N,Vol_01*%
X22860000Y-28200000D03*
%TO.P,U3,32,40_A16*%
%TO.N,Vol_02*%
X25400000Y-28200000D03*
%TO.P,U3,33,41_A17*%
%TO.N,Vol_03*%
X27940000Y-28200000D03*
%TO.P,U3,34,GND*%
%TO.N,GND*%
X30480000Y-28200000D03*
%TO.P,U3,35,13_SCK_LED*%
%TO.N,unconnected-(U3-13_SCK_LED-Pad35)*%
X33020000Y-28200000D03*
%TO.P,U3,36,14_A0_TX3_SPDIF_OUT*%
%TO.N,Pitch1*%
X35560000Y-28200000D03*
%TO.P,U3,37,15_A1_RX3_SPDIF_IN*%
%TO.N,Pitch2*%
X38100000Y-28200000D03*
%TO.P,U3,38,16_A2_RX4_SCL1*%
%TO.N,Pitch3*%
X40640000Y-28200000D03*
%TO.P,U3,39,17_A3_TX4_SDA1*%
%TO.N,Shape1*%
X43180000Y-28200000D03*
%TO.P,U3,40,18_A4_SDA*%
%TO.N,Shape2*%
X45720000Y-28200000D03*
%TO.P,U3,41,19_A5_SCL*%
%TO.N,Shape3*%
X48260000Y-28200000D03*
%TO.P,U3,42,20_A6_TX5_LRCLK1*%
%TO.N,Temp1*%
X50800000Y-28200000D03*
%TO.P,U3,43,21_A7_RX5_BCLK1*%
%TO.N,Temp2*%
X53340000Y-28200000D03*
%TO.P,U3,44,22_A8_CTX1*%
%TO.N,Temp3*%
X55880000Y-28200000D03*
%TO.P,U3,45,23_A9_CRX1_MCLK1*%
%TO.N,Motion1*%
X58420000Y-28200000D03*
%TO.P,U3,46,3V3*%
%TO.N,3v3*%
X60960000Y-28200000D03*
%TO.P,U3,47,GND*%
%TO.N,GND*%
X63500000Y-28200000D03*
%TO.P,U3,48,VIN*%
%TO.N,Net-(Connect_For_Euro_Power1-B)*%
X66040000Y-28200000D03*
%TO.P,U3,49,VUSB*%
%TO.N,unconnected-(U3-VUSB-Pad49)*%
X63500000Y-30740000D03*
%TO.P,U3,50,VBAT*%
%TO.N,unconnected-(U3-VBAT-Pad50)*%
X20320000Y-40900000D03*
%TO.P,U3,51,3V3*%
%TO.N,unconnected-(U3-3V3-Pad51)*%
X20320000Y-38360000D03*
%TO.P,U3,52,GND*%
%TO.N,unconnected-(U3-GND-Pad52)*%
X20320000Y-35820000D03*
%TO.P,U3,53,PROGRAM*%
%TO.N,unconnected-(U3-PROGRAM-Pad53)*%
X20320000Y-33280000D03*
%TO.P,U3,54,ON_OFF*%
%TO.N,unconnected-(U3-ON_OFF-Pad54)*%
X20320000Y-30740000D03*
D10*
%TO.P,U3,55,5V*%
%TO.N,unconnected-(U3-5V-Pad55)*%
X59740800Y-40389200D03*
D11*
%TO.P,U3,56,D-*%
%TO.N,unconnected-(U3-D--Pad56)*%
X57200800Y-40389200D03*
%TO.P,U3,57,D+*%
%TO.N,unconnected-(U3-D+-Pad57)*%
X54660800Y-40389200D03*
%TO.P,U3,58,GND*%
%TO.N,unconnected-(U3-GND-Pad58)*%
X52120800Y-40389200D03*
%TO.P,U3,59,GND*%
%TO.N,unconnected-(U3-GND-Pad59)*%
X49580800Y-40389200D03*
D19*
%TO.P,U3,60,R+*%
%TO.N,unconnected-(U3-R+-Pad60)*%
X53070000Y-30638400D03*
D20*
%TO.P,U3,61,LED*%
%TO.N,unconnected-(U3-LED-Pad61)*%
X53070000Y-32638400D03*
%TO.P,U3,62,T-*%
%TO.N,unconnected-(U3-T--Pad62)*%
X53070000Y-34638400D03*
%TO.P,U3,63,T+*%
%TO.N,unconnected-(U3-T+-Pad63)*%
X51070000Y-34638400D03*
%TO.P,U3,64,GND*%
%TO.N,unconnected-(U3-GND-Pad64)*%
X51070000Y-32638400D03*
%TO.P,U3,65,R-*%
%TO.N,unconnected-(U3-R--Pad65)*%
X51070000Y-30638400D03*
%TO.P,U3,66,D-*%
%TO.N,unconnected-(U3-D--Pad66)*%
X65310000Y-34550000D03*
%TO.P,U3,67,D+*%
%TO.N,unconnected-(U3-D+-Pad67)*%
X65310000Y-37090000D03*
%TD*%
D11*
%TO.P,C9,1*%
%TO.N,Net-(U2-RCH)*%
X144707900Y-38339600D03*
D12*
%TO.P,C9,2*%
%TO.N,RightAudio*%
X137207900Y-38339600D03*
%TD*%
D10*
%TO.P,D3,1,K*%
%TO.N,Net-(D3-K)*%
X25687600Y-18684300D03*
D12*
%TO.P,D3,2,A*%
%TO.N,GND*%
X33307600Y-18684300D03*
%TD*%
D18*
%TO.P,R2,1,1*%
%TO.N,Trig_1*%
X105410000Y-28200000D03*
%TO.P,R2,2,2*%
%TO.N,3v3*%
X97790000Y-28200000D03*
%TD*%
D17*
%TO.P,T3,1,C*%
%TO.N,Trig_3*%
X89400100Y-13247600D03*
%TO.P,T3,2,B*%
%TO.N,Net-(D5-K)*%
X90670100Y-11342600D03*
%TO.P,T3,3,E*%
%TO.N,GND*%
X91940100Y-13247600D03*
%TD*%
D18*
%TO.P,R6,1,1*%
%TO.N,Net-(TRIG3-2)*%
X86680000Y-40900000D03*
%TO.P,R6,2,2*%
%TO.N,Net-(D5-K)*%
X79060000Y-40900000D03*
%TD*%
D10*
%TO.P,D5,1,K*%
%TO.N,Net-(D5-K)*%
X86949900Y-17815800D03*
D12*
%TO.P,D5,2,A*%
%TO.N,GND*%
X94569900Y-17815800D03*
%TD*%
D21*
%TO.N,Vol_03*%
X46368600Y-46163700D03*
%TO.N,Vol_02*%
X46351600Y-47741200D03*
%TO.N,Net-(Connect_For_Euro_Power1-B)*%
X80680900Y-26367900D03*
%TO.N,WS*%
X46423100Y-50094600D03*
%TO.N,BLCK*%
X46955200Y-50626800D03*
%TO.N,Traffic3*%
X36942100Y-52129500D03*
%TO.N,Temp3*%
X65693700Y-57286800D03*
%TO.N,Temp2*%
X64794500Y-39190200D03*
%TO.N,Net-(U2-RCH)*%
X51312100Y-53240200D03*
%TO.N,Net-(U2-LCH)*%
X50734900Y-52753000D03*
%TO.N,Net-(U2-VDD)*%
X50225300Y-51579600D03*
%TD*%
D22*
%TO.N,+12V*%
X114300000Y-24130000D02*
X123022600Y-24130000D01*
X123190000Y-24130000D02*
X127080000Y-28020000D01*
X123022600Y-24130000D02*
X123190000Y-24130000D01*
X123022600Y-14855100D02*
X121920000Y-13752500D01*
X123022600Y-24130000D02*
X123022600Y-14855100D01*
X121920000Y-12700000D02*
X121920000Y-13752500D01*
%TO.N,Net-(D3-K)*%
X52971700Y-11699300D02*
X29497600Y-11699300D01*
X66932400Y-25660000D02*
X52971700Y-11699300D01*
X79060000Y-25660000D02*
X66932400Y-25660000D01*
%TO.N,Vol_03*%
X49320300Y-49115400D02*
X46368600Y-46163700D01*
X49320300Y-52618200D02*
X49320300Y-49115400D01*
X53436400Y-56734300D02*
X49320300Y-52618200D01*
X101990700Y-56734300D02*
X53436400Y-56734300D01*
X107380700Y-62124300D02*
X101990700Y-56734300D01*
X130475700Y-62124300D02*
X107380700Y-62124300D01*
X132000000Y-60600000D02*
X130475700Y-62124300D01*
%TO.N,Vol_02*%
X83883400Y-61716600D02*
X85000000Y-60600000D01*
X67014700Y-61716600D02*
X83883400Y-61716600D01*
X66250000Y-60951900D02*
X67014700Y-61716600D01*
X66250000Y-60239600D02*
X66250000Y-60951900D01*
X64222900Y-58212500D02*
X66250000Y-60239600D01*
X53880100Y-58212500D02*
X64222900Y-58212500D01*
X48565200Y-52897600D02*
X53880100Y-58212500D01*
X48565200Y-49954800D02*
X48565200Y-52897600D01*
X46351600Y-47741200D02*
X48565200Y-49954800D01*
%TO.N,Net-(Connect_For_Euro_Power1-B)*%
X78848800Y-28200000D02*
X80680900Y-26367900D01*
X66040000Y-28200000D02*
X78848800Y-28200000D01*
%TO.N,WS*%
X24434600Y-50094600D02*
X46423100Y-50094600D01*
X17780000Y-43440000D02*
X24434600Y-50094600D01*
%TO.N,BLCK*%
X46934800Y-50647200D02*
X46955200Y-50626800D01*
X22447200Y-50647200D02*
X46934800Y-50647200D01*
X15240000Y-43440000D02*
X22447200Y-50647200D01*
%TO.N,Traffic3*%
X130882200Y-110282200D02*
X132000000Y-111400000D01*
X127333800Y-110282200D02*
X130882200Y-110282200D01*
X125103600Y-112512400D02*
X127333800Y-110282200D01*
X109009700Y-112512400D02*
X125103600Y-112512400D01*
X103703800Y-107206500D02*
X109009700Y-112512400D01*
X103703800Y-100569900D02*
X103703800Y-107206500D01*
X87191700Y-84057800D02*
X103703800Y-100569900D01*
X68870400Y-84057800D02*
X87191700Y-84057800D01*
X36942100Y-52129500D02*
X68870400Y-84057800D01*
%TO.N,Temp3*%
X130882200Y-84882200D02*
X132000000Y-86000000D01*
X127333800Y-84882200D02*
X130882200Y-84882200D01*
X125125200Y-87090800D02*
X127333800Y-84882200D01*
X114026000Y-87090800D02*
X125125200Y-87090800D01*
X113250000Y-86314800D02*
X114026000Y-87090800D01*
X113250000Y-81576100D02*
X113250000Y-86314800D01*
X88960700Y-57286800D02*
X113250000Y-81576100D01*
X65693700Y-57286800D02*
X88960700Y-57286800D01*
%TO.N,Temp2*%
X64330200Y-39190200D02*
X64794500Y-39190200D01*
X53340000Y-28200000D02*
X64330200Y-39190200D01*
%TO.N,Shape3*%
X111273300Y-86000000D02*
X112000000Y-86000000D01*
X104616000Y-79342700D02*
X111273300Y-86000000D01*
X104616000Y-76170200D02*
X104616000Y-79342700D01*
X87469500Y-59023700D02*
X104616000Y-76170200D01*
X66416800Y-59023700D02*
X87469500Y-59023700D01*
X65076800Y-57683700D02*
X66416800Y-59023700D01*
X53887100Y-57683700D02*
X65076800Y-57683700D01*
X48960400Y-52757000D02*
X53887100Y-57683700D01*
X48960400Y-49549300D02*
X48960400Y-52757000D01*
X45810000Y-46398900D02*
X48960400Y-49549300D01*
X45810000Y-45751800D02*
X45810000Y-46398900D01*
X47114800Y-44447000D02*
X45810000Y-45751800D01*
X47114800Y-29345200D02*
X47114800Y-44447000D01*
X48260000Y-28200000D02*
X47114800Y-29345200D01*
%TO.N,Trig_3*%
X101112400Y-45197600D02*
X105410000Y-40900000D01*
X57637600Y-45197600D02*
X101112400Y-45197600D01*
X55880000Y-43440000D02*
X57637600Y-45197600D01*
%TO.N,Trig_2*%
X102340600Y-33280000D02*
X105410000Y-33280000D01*
X90775500Y-44845100D02*
X102340600Y-33280000D01*
X59825100Y-44845100D02*
X90775500Y-44845100D01*
X58420000Y-43440000D02*
X59825100Y-44845100D01*
%TO.N,Net-(TRIG2-2)*%
X53566000Y-10500000D02*
X44450000Y-10500000D01*
X63635900Y-20569900D02*
X53566000Y-10500000D01*
X75664300Y-20569900D02*
X63635900Y-20569900D01*
X86680000Y-31585600D02*
X75664300Y-20569900D01*
X86680000Y-33280000D02*
X86680000Y-31585600D01*
%TO.N,Trig_1*%
X68083700Y-34917000D02*
X66269300Y-36731400D01*
X98693000Y-34917000D02*
X68083700Y-34917000D01*
X105410000Y-28200000D02*
X98693000Y-34917000D01*
X66269300Y-38496800D02*
X66269300Y-36731400D01*
X61326100Y-43440000D02*
X66269300Y-38496800D01*
X60960000Y-43440000D02*
X61326100Y-43440000D01*
X28227600Y-15177400D02*
X28227600Y-13604300D01*
X39492600Y-26442400D02*
X28227600Y-15177400D01*
X58215800Y-26442400D02*
X39492600Y-26442400D01*
X59690000Y-27916600D02*
X58215800Y-26442400D01*
X59690000Y-30282400D02*
X59690000Y-27916600D01*
X65227600Y-35820000D02*
X59690000Y-30282400D01*
X65357900Y-35820000D02*
X65227600Y-35820000D01*
X66269300Y-36731400D02*
X65357900Y-35820000D01*
%TO.N,Net-(TRIG1-2)*%
X15056100Y-9413900D02*
X13970000Y-10500000D01*
X53154800Y-9413900D02*
X15056100Y-9413900D01*
X63833800Y-20092900D02*
X53154800Y-9413900D01*
X81112900Y-20092900D02*
X63833800Y-20092900D01*
X86680000Y-25660000D02*
X81112900Y-20092900D01*
%TO.N,Pitch3*%
X41692600Y-27147400D02*
X40640000Y-28200000D01*
X48773200Y-27147400D02*
X41692600Y-27147400D01*
X49353900Y-27728100D02*
X48773200Y-27147400D01*
X49353900Y-39085400D02*
X49353900Y-27728100D01*
X48498800Y-39940500D02*
X49353900Y-39085400D01*
X48498800Y-41347100D02*
X48498800Y-39940500D01*
X49672800Y-42521100D02*
X48498800Y-41347100D01*
X49672800Y-52472200D02*
X49672800Y-42521100D01*
X53582400Y-56381800D02*
X49672800Y-52472200D01*
X107781800Y-56381800D02*
X53582400Y-56381800D01*
X112000000Y-60600000D02*
X107781800Y-56381800D01*
%TO.N,Pitch2*%
X63141200Y-58741200D02*
X65000000Y-60600000D01*
X53910200Y-58741200D02*
X63141200Y-58741200D01*
X48082700Y-52913700D02*
X53910200Y-58741200D01*
X48082700Y-50469300D02*
X48082700Y-52913700D01*
X44450100Y-46836700D02*
X48082700Y-50469300D01*
X44450100Y-34550100D02*
X44450100Y-46836700D01*
X38100000Y-28200000D02*
X44450100Y-34550100D01*
%TO.N,Pitch1*%
X18000000Y-48522500D02*
X18000000Y-60600000D01*
X14182600Y-44705100D02*
X18000000Y-48522500D01*
X14182600Y-42951900D02*
X14182600Y-44705100D01*
X20044500Y-37090000D02*
X14182600Y-42951900D01*
X26670000Y-37090000D02*
X20044500Y-37090000D01*
X35560000Y-28200000D02*
X26670000Y-37090000D01*
%TO.N,Motion3*%
X111287100Y-111400000D02*
X112000000Y-111400000D01*
X105201500Y-105314400D02*
X111287100Y-111400000D01*
X105201500Y-101534600D02*
X105201500Y-105314400D01*
X84319500Y-80652600D02*
X105201500Y-101534600D01*
X75288100Y-80652600D02*
X84319500Y-80652600D01*
X47730100Y-53094600D02*
X75288100Y-80652600D01*
X47730100Y-50620100D02*
X47730100Y-53094600D01*
X45977600Y-48867600D02*
X47730100Y-50620100D01*
X30827600Y-48867600D02*
X45977600Y-48867600D01*
X25400000Y-43440000D02*
X30827600Y-48867600D01*
%TO.N,3v3*%
X21591600Y-112491600D02*
X20500000Y-111400000D01*
X39408400Y-112491600D02*
X21591600Y-112491600D01*
X40500000Y-111400000D02*
X39408400Y-112491600D01*
X89207400Y-34242600D02*
X93980000Y-29470000D01*
X85500600Y-34242600D02*
X89207400Y-34242600D01*
X80728000Y-29470000D02*
X85500600Y-34242600D01*
X62230000Y-29470000D02*
X80728000Y-29470000D01*
X60960000Y-28200000D02*
X62230000Y-29470000D01*
X96520000Y-32010000D02*
X97790000Y-33280000D01*
X96520000Y-29470000D02*
X96520000Y-32010000D01*
X93980000Y-29470000D02*
X96520000Y-29470000D01*
X96520000Y-29470000D02*
X97790000Y-28200000D01*
X115970400Y-109929600D02*
X114500000Y-111400000D01*
X133117800Y-109929600D02*
X115970400Y-109929600D01*
X133117800Y-110017800D02*
X133117800Y-109929600D01*
X134500000Y-111400000D02*
X133117800Y-110017800D01*
X133117800Y-87382200D02*
X134500000Y-86000000D01*
X133117800Y-109929600D02*
X133117800Y-87382200D01*
X21592500Y-59507500D02*
X20500000Y-60600000D01*
X39407500Y-59507500D02*
X21592500Y-59507500D01*
X40500000Y-60600000D02*
X39407500Y-59507500D01*
X41590800Y-84909200D02*
X40500000Y-86000000D01*
X66409200Y-84909200D02*
X41590800Y-84909200D01*
X67500000Y-86000000D02*
X66409200Y-84909200D01*
X21597800Y-84902200D02*
X20500000Y-86000000D01*
X39402200Y-84902200D02*
X21597800Y-84902200D01*
X40500000Y-86000000D02*
X39402200Y-84902200D01*
X115602800Y-59497200D02*
X114500000Y-60600000D01*
X133397200Y-59497200D02*
X115602800Y-59497200D01*
X134500000Y-60600000D02*
X133397200Y-59497200D01*
X115970400Y-84529600D02*
X114500000Y-86000000D01*
X133029600Y-84529600D02*
X115970400Y-84529600D01*
X134500000Y-86000000D02*
X133029600Y-84529600D01*
X68594400Y-110305600D02*
X86405600Y-110305600D01*
X67500000Y-111400000D02*
X68594400Y-110305600D01*
X86405600Y-110305600D02*
X87500000Y-111400000D01*
X87500000Y-86000000D02*
X87198300Y-86000000D01*
X86107500Y-84909200D02*
X87198300Y-86000000D01*
X68590800Y-84909200D02*
X86107500Y-84909200D01*
X67500000Y-86000000D02*
X68590800Y-84909200D01*
X87198300Y-109512900D02*
X86405600Y-110305600D01*
X87198300Y-86000000D02*
X87198300Y-109512900D01*
X86406400Y-59506400D02*
X87500000Y-60600000D01*
X68593600Y-59506400D02*
X86406400Y-59506400D01*
X67500000Y-60600000D02*
X68593600Y-59506400D01*
%TO.N,Motion1*%
X16873500Y-112526500D02*
X18000000Y-111400000D01*
X15065900Y-112526500D02*
X16873500Y-112526500D01*
X11847400Y-109308000D02*
X15065900Y-112526500D01*
X11847400Y-45829700D02*
X11847400Y-109308000D01*
X13830000Y-43847100D02*
X11847400Y-45829700D01*
X13830000Y-40795600D02*
X13830000Y-43847100D01*
X20075600Y-34550000D02*
X13830000Y-40795600D01*
X28165000Y-34550000D02*
X20075600Y-34550000D01*
X34290000Y-28425000D02*
X28165000Y-34550000D01*
X34290000Y-27978700D02*
X34290000Y-28425000D01*
X35473800Y-26794900D02*
X34290000Y-27978700D01*
X57014900Y-26794900D02*
X35473800Y-26794900D01*
X58420000Y-28200000D02*
X57014900Y-26794900D01*
%TO.N,Net-(U2-RCH)*%
X53051500Y-51500800D02*
X51312100Y-53240200D01*
X114900000Y-51500800D02*
X53051500Y-51500800D01*
X124950700Y-41450100D02*
X114900000Y-51500800D01*
X141597400Y-41450100D02*
X124950700Y-41450100D01*
X144707900Y-38339600D02*
X141597400Y-41450100D01*
%TO.N,Net-(U2-LCH)*%
X55556200Y-47931700D02*
X50734900Y-52753000D01*
X108187400Y-47931700D02*
X55556200Y-47931700D01*
X119848800Y-36270300D02*
X108187400Y-47931700D01*
X140994100Y-36270300D02*
X119848800Y-36270300D01*
X144907300Y-32357100D02*
X140994100Y-36270300D01*
%TO.N,Net-(U2-VDD)*%
X86577500Y-44492500D02*
X93980000Y-37090000D01*
X60489100Y-44492500D02*
X86577500Y-44492500D01*
X59479400Y-43482800D02*
X60489100Y-44492500D01*
X59479400Y-42993000D02*
X59479400Y-43482800D01*
X58820600Y-42334200D02*
X59479400Y-42993000D01*
X55486800Y-42334200D02*
X58820600Y-42334200D01*
X54610000Y-43211000D02*
X55486800Y-42334200D01*
X54610000Y-47194900D02*
X54610000Y-43211000D01*
X50225300Y-51579600D02*
X54610000Y-47194900D01*
X145987100Y-43281400D02*
X144879800Y-44388700D01*
X145987100Y-31939700D02*
X145987100Y-43281400D01*
X142758700Y-28711300D02*
X145987100Y-31939700D01*
X142010100Y-29459900D02*
X142758700Y-28711300D01*
X125122000Y-29459900D02*
X142010100Y-29459900D01*
X124994600Y-29332500D02*
X125122000Y-29459900D01*
X104776200Y-29332500D02*
X124994600Y-29332500D01*
X97018700Y-37090000D02*
X104776200Y-29332500D01*
X93980000Y-37090000D02*
X97018700Y-37090000D01*
X142758700Y-28711300D02*
X144780000Y-26690000D01*
%TO.N,GND*%
X30767600Y-15091800D02*
X30767600Y-13604300D01*
X33307600Y-17631800D02*
X30767600Y-15091800D01*
X33307600Y-18684300D02*
X33307600Y-17631800D01*
X94569900Y-17815800D02*
X95622400Y-17815800D01*
X99806600Y-22000000D02*
X105410000Y-22000000D01*
X95622400Y-17815800D02*
X99806600Y-22000000D01*
X63602800Y-112502800D02*
X62500000Y-111400000D01*
X81397200Y-112502800D02*
X63602800Y-112502800D01*
X82500000Y-111400000D02*
X81397200Y-112502800D01*
X34351000Y-61749000D02*
X35500000Y-60600000D01*
X16649000Y-61749000D02*
X34351000Y-61749000D01*
X16649000Y-61749000D02*
X15500000Y-60600000D01*
X36590800Y-87090800D02*
X35500000Y-86000000D01*
X61409200Y-87090800D02*
X36590800Y-87090800D01*
X62500000Y-86000000D02*
X61409200Y-87090800D01*
X15500000Y-86000000D02*
X15937300Y-85562700D01*
X16649000Y-84851000D02*
X16649000Y-61749000D01*
X15937300Y-85562700D02*
X16649000Y-84851000D01*
X34374900Y-87125100D02*
X28000000Y-87125100D01*
X35500000Y-86000000D02*
X34374900Y-87125100D01*
X17499600Y-87125100D02*
X15937300Y-85562700D01*
X28000000Y-87125100D02*
X17499600Y-87125100D01*
X28000000Y-87125100D02*
X28000000Y-110282100D01*
X34382100Y-110282100D02*
X28000000Y-110282100D01*
X35500000Y-111400000D02*
X34382100Y-110282100D01*
X16617900Y-110282100D02*
X15500000Y-111400000D01*
X28000000Y-110282100D02*
X16617900Y-110282100D01*
X57300000Y-22000000D02*
X44450000Y-22000000D01*
X63500000Y-28200000D02*
X57300000Y-22000000D01*
X110598500Y-61698500D02*
X109500000Y-60600000D01*
X128401500Y-61698500D02*
X110598500Y-61698500D01*
X129500000Y-60600000D02*
X128401500Y-61698500D01*
X137280000Y-26690000D02*
X136227500Y-26690000D01*
X105820000Y-21590000D02*
X118266400Y-21590000D01*
X105410000Y-22000000D02*
X105820000Y-21590000D01*
X118266400Y-13853600D02*
X119420000Y-12700000D01*
X118266400Y-21590000D02*
X118266400Y-13853600D01*
X119685300Y-21590000D02*
X118266400Y-21590000D01*
X120817500Y-22722200D02*
X119685300Y-21590000D01*
X120817500Y-22860000D02*
X120817500Y-22722200D01*
X121920000Y-22860000D02*
X120817500Y-22860000D01*
X135890000Y-22000000D02*
X135890000Y-26690000D01*
X135890000Y-26690000D02*
X136227500Y-26690000D01*
X134560000Y-28020000D02*
X132080000Y-28020000D01*
X135890000Y-26690000D02*
X134560000Y-28020000D01*
X124953200Y-27940000D02*
X121920000Y-27940000D01*
X126115600Y-29102400D02*
X124953200Y-27940000D01*
X130997600Y-29102400D02*
X126115600Y-29102400D01*
X132080000Y-28020000D02*
X130997600Y-29102400D01*
%TD*%
M02*
