%TF.GenerationSoftware,KiCad,Pcbnew,7.0.2-0*%
%TF.CreationDate,2023-11-14T20:22:56-05:00*%
%TF.ProjectId,A2 Percussion Desktop,41322050-6572-4637-9573-73696f6e2044,rev?*%
%TF.SameCoordinates,Original*%
%TF.FileFunction,Copper,L2,Bot*%
%TF.FilePolarity,Positive*%
%FSLAX46Y46*%
G04 Gerber Fmt 4.6, Leading zero omitted, Abs format (unit mm)*
G04 Created by KiCad (PCBNEW 7.0.2-0) date 2023-11-14 20:22:56*
%MOMM*%
%LPD*%
G01*
G04 APERTURE LIST*
G04 Aperture macros list*
%AMOutline5P*
0 Free polygon, 5 corners , with rotation*
0 The origin of the aperture is its center*
0 number of corners: always 5*
0 $1 to $10 corner X, Y*
0 $11 Rotation angle, in degrees counterclockwise*
0 create outline with 5 corners*
4,1,5,$1,$2,$3,$4,$5,$6,$7,$8,$9,$10,$1,$2,$11*%
%AMOutline6P*
0 Free polygon, 6 corners , with rotation*
0 The origin of the aperture is its center*
0 number of corners: always 6*
0 $1 to $12 corner X, Y*
0 $13 Rotation angle, in degrees counterclockwise*
0 create outline with 6 corners*
4,1,6,$1,$2,$3,$4,$5,$6,$7,$8,$9,$10,$11,$12,$1,$2,$13*%
%AMOutline7P*
0 Free polygon, 7 corners , with rotation*
0 The origin of the aperture is its center*
0 number of corners: always 7*
0 $1 to $14 corner X, Y*
0 $15 Rotation angle, in degrees counterclockwise*
0 create outline with 7 corners*
4,1,7,$1,$2,$3,$4,$5,$6,$7,$8,$9,$10,$11,$12,$13,$14,$1,$2,$15*%
%AMOutline8P*
0 Free polygon, 8 corners , with rotation*
0 The origin of the aperture is its center*
0 number of corners: always 8*
0 $1 to $16 corner X, Y*
0 $17 Rotation angle, in degrees counterclockwise*
0 create outline with 8 corners*
4,1,8,$1,$2,$3,$4,$5,$6,$7,$8,$9,$10,$11,$12,$13,$14,$15,$16,$1,$2,$17*%
G04 Aperture macros list end*
%TA.AperFunction,SMDPad,CuDef*%
%ADD10R,1.600200X0.914400*%
%TD*%
%TA.AperFunction,ComponentPad*%
%ADD11R,1.600000X1.600000*%
%TD*%
%TA.AperFunction,ComponentPad*%
%ADD12C,1.600000*%
%TD*%
%TA.AperFunction,ComponentPad*%
%ADD13O,1.600000X1.600000*%
%TD*%
%TA.AperFunction,ComponentPad*%
%ADD14O,1.700000X1.700000*%
%TD*%
%TA.AperFunction,SMDPad,CuDef*%
%ADD15R,1.600200X1.168400*%
%TD*%
%TA.AperFunction,ComponentPad*%
%ADD16C,1.676400*%
%TD*%
%TA.AperFunction,ComponentPad*%
%ADD17R,2.800000X2.800000*%
%TD*%
%TA.AperFunction,ComponentPad*%
%ADD18C,1.650000*%
%TD*%
%TA.AperFunction,SMDPad,CuDef*%
%ADD19R,1.450000X0.450000*%
%TD*%
%TA.AperFunction,ComponentPad*%
%ADD20Outline8P,-0.660400X0.273547X-0.273547X0.660400X0.273547X0.660400X0.660400X0.273547X0.660400X-0.273547X0.273547X-0.660400X-0.273547X-0.660400X-0.660400X-0.273547X180.000000*%
%TD*%
%TA.AperFunction,ComponentPad*%
%ADD21C,1.397000*%
%TD*%
%TA.AperFunction,ComponentPad*%
%ADD22R,1.300000X1.300000*%
%TD*%
%TA.AperFunction,ComponentPad*%
%ADD23C,1.300000*%
%TD*%
%TA.AperFunction,ViaPad*%
%ADD24C,0.600000*%
%TD*%
%TA.AperFunction,Conductor*%
%ADD25C,0.200000*%
%TD*%
G04 APERTURE END LIST*
%TA.AperFunction,EtchedComponent*%
%TO.C,CR1*%
G36*
X118491200Y-42298400D02*
G01*
X116891000Y-42298400D01*
X116891000Y-39098000D01*
X118491200Y-39098000D01*
X118491200Y-42298400D01*
G37*
%TD.AperFunction*%
%TD*%
D10*
%TO.P,CR1,1,ADJ/GND*%
%TO.N,GND*%
X124091900Y-38398200D03*
%TO.P,CR1,2,VOUT*%
%TO.N,+5V*%
X124091900Y-40698200D03*
%TO.P,CR1,3,VIN*%
%TO.N,+12V*%
X124091900Y-42998200D03*
%TD*%
D11*
%TO.P,C4,1*%
%TO.N,+12V*%
X121920000Y-12700000D03*
D12*
%TO.P,C4,2*%
%TO.N,GND*%
X119420000Y-12700000D03*
%TD*%
D13*
%TO.P,D4,2,A*%
%TO.N,Net-(D4-A)*%
X114300000Y-31750000D03*
D11*
%TO.P,D4,1,K*%
%TO.N,+12V*%
X114300000Y-24130000D03*
%TD*%
D14*
%TO.P,J1,10,-12V*%
%TO.N,-12V*%
X119380000Y-30480000D03*
%TO.P,J1,9,-12V*%
%TO.N,unconnected-(J1--12V-Pad9)*%
X121920000Y-30480000D03*
%TO.P,J1,8,GND*%
%TO.N,unconnected-(J1-GND-Pad8)*%
X119380000Y-27940000D03*
%TO.P,J1,7,GND*%
%TO.N,GND*%
X121920000Y-27940000D03*
%TO.P,J1,6,GND*%
%TO.N,unconnected-(J1-GND-Pad6)*%
X119380000Y-25400000D03*
%TO.P,J1,5,GND*%
%TO.N,GND*%
X121920000Y-25400000D03*
%TO.P,J1,4,GND*%
%TO.N,unconnected-(J1-GND-Pad4)*%
X119380000Y-22860000D03*
%TO.P,J1,3,GND*%
%TO.N,GND*%
X121920000Y-22860000D03*
%TO.P,J1,2,+12V*%
%TO.N,Net-(D4-A)*%
X119380000Y-20320000D03*
%TO.P,J1,1,+12V*%
%TO.N,unconnected-(J1-+12V-Pad1)*%
X121920000Y-20320000D03*
%TD*%
D15*
%TO.P,Connect_For_Euro_Power1,2,B*%
%TO.N,Net-(Connect_For_Euro_Power1-B)*%
X113117300Y-12805260D03*
%TO.P,Connect_For_Euro_Power1,1,A*%
%TO.N,+5V*%
X113117300Y-11283800D03*
%TD*%
D12*
%TO.P,C3,2,2*%
%TO.N,GND*%
X132190500Y-33017100D03*
%TO.P,C3,1,1*%
%TO.N,+5V*%
X127190500Y-33017100D03*
%TD*%
%TO.P,C2,1,1*%
%TO.N,+12V*%
X127080000Y-28020000D03*
%TO.P,C2,2,2*%
%TO.N,GND*%
X132080000Y-28020000D03*
%TD*%
D16*
%TO.P,Shape_3,1,A*%
%TO.N,GND*%
X109500000Y-86000000D03*
%TO.P,Shape_3,2,S*%
%TO.N,Shape3*%
X112000000Y-86000000D03*
%TO.P,Shape_3,3,E*%
%TO.N,3v3*%
X114500000Y-86000000D03*
D17*
%TO.P,Shape_3,M1*%
%TO.N,N/C*%
X116500000Y-79000000D03*
%TO.P,Shape_3,M2*%
X107500000Y-79000000D03*
%TD*%
D16*
%TO.P,Pitch_2,1,A*%
%TO.N,GND*%
X62500000Y-60600000D03*
%TO.P,Pitch_2,2,S*%
%TO.N,Pitch2*%
X65000000Y-60600000D03*
%TO.P,Pitch_2,3,E*%
%TO.N,3v3*%
X67500000Y-60600000D03*
D17*
%TO.P,Pitch_2,M1*%
%TO.N,N/C*%
X69500000Y-53600000D03*
%TO.P,Pitch_2,M2*%
X60500000Y-53600000D03*
%TD*%
D18*
%TO.P,RightAudio1,P$1,2*%
%TO.N,RightAudio*%
X135890000Y-10500000D03*
%TO.P,RightAudio1,P$2,3*%
%TO.N,unconnected-(RightAudio1-3-PadP$2)*%
X135890000Y-19000000D03*
%TO.P,RightAudio1,P$3,1*%
%TO.N,GND*%
X135890000Y-22000000D03*
%TD*%
%TO.P,TRIG3,P$1,2*%
%TO.N,Net-(TRIG3-2)*%
X74930000Y-10500000D03*
%TO.P,TRIG3,P$2,3*%
%TO.N,unconnected-(TRIG3-3-PadP$2)*%
X74930000Y-19000000D03*
%TO.P,TRIG3,P$3,1*%
%TO.N,GND*%
X74930000Y-22000000D03*
%TD*%
D16*
%TO.P,Temp_1,1,A*%
%TO.N,GND*%
X35500000Y-86000000D03*
%TO.P,Temp_1,2,S*%
%TO.N,Temp1*%
X38000000Y-86000000D03*
%TO.P,Temp_1,3,E*%
%TO.N,3v3*%
X40500000Y-86000000D03*
D17*
%TO.P,Temp_1,M1*%
%TO.N,N/C*%
X42500000Y-79000000D03*
%TO.P,Temp_1,M2*%
X33500000Y-79000000D03*
%TD*%
D16*
%TO.P,Vol_1,1,A*%
%TO.N,GND*%
X35500000Y-60600000D03*
%TO.P,Vol_1,2,S*%
%TO.N,Vol_01*%
X38000000Y-60600000D03*
%TO.P,Vol_1,3,E*%
%TO.N,3v3*%
X40500000Y-60600000D03*
D17*
%TO.P,Vol_1,M1*%
%TO.N,N/C*%
X42500000Y-53600000D03*
%TO.P,Vol_1,M2*%
X33500000Y-53600000D03*
%TD*%
D16*
%TO.P,Temp_2,1,A*%
%TO.N,GND*%
X82500000Y-86000000D03*
%TO.P,Temp_2,2,S*%
%TO.N,Temp2*%
X85000000Y-86000000D03*
%TO.P,Temp_2,3,E*%
%TO.N,3v3*%
X87500000Y-86000000D03*
D17*
%TO.P,Temp_2,M1*%
%TO.N,N/C*%
X89500000Y-79000000D03*
%TO.P,Temp_2,M2*%
X80500000Y-79000000D03*
%TD*%
D16*
%TO.P,Motion_2,1,A*%
%TO.N,GND*%
X62500000Y-111400000D03*
%TO.P,Motion_2,2,S*%
%TO.N,Motion2*%
X65000000Y-111400000D03*
%TO.P,Motion_2,3,E*%
%TO.N,3v3*%
X67500000Y-111400000D03*
D17*
%TO.P,Motion_2,M1*%
%TO.N,N/C*%
X69500000Y-104400000D03*
%TO.P,Motion_2,M2*%
X60500000Y-104400000D03*
%TD*%
D18*
%TO.P,LeftAudio1,P$1,2*%
%TO.N,LeftAudio*%
X105410000Y-10500000D03*
%TO.P,LeftAudio1,P$2,3*%
%TO.N,unconnected-(LeftAudio1-3-PadP$2)*%
X105410000Y-19000000D03*
%TO.P,LeftAudio1,P$3,1*%
%TO.N,GND*%
X105410000Y-22000000D03*
%TD*%
D16*
%TO.P,Motion_1,1,A*%
%TO.N,GND*%
X15500000Y-111400000D03*
%TO.P,Motion_1,2,S*%
%TO.N,Motion1*%
X18000000Y-111400000D03*
%TO.P,Motion_1,3,E*%
%TO.N,3v3*%
X20500000Y-111400000D03*
D17*
%TO.P,Motion_1,M1*%
%TO.N,N/C*%
X22500000Y-104400000D03*
%TO.P,Motion_1,M2*%
X13500000Y-104400000D03*
%TD*%
D16*
%TO.P,Temp_3,1,A*%
%TO.N,GND*%
X129500000Y-86000000D03*
%TO.P,Temp_3,2,S*%
%TO.N,Temp3*%
X132000000Y-86000000D03*
%TO.P,Temp_3,3,E*%
%TO.N,3v3*%
X134500000Y-86000000D03*
D17*
%TO.P,Temp_3,M1*%
%TO.N,N/C*%
X136500000Y-79000000D03*
%TO.P,Temp_3,M2*%
X127500000Y-79000000D03*
%TD*%
D16*
%TO.P,Traffic_1,1,A*%
%TO.N,GND*%
X35500000Y-111400000D03*
%TO.P,Traffic_1,2,S*%
%TO.N,Traffic1*%
X38000000Y-111400000D03*
%TO.P,Traffic_1,3,E*%
%TO.N,3v3*%
X40500000Y-111400000D03*
D17*
%TO.P,Traffic_1,M1*%
%TO.N,N/C*%
X42500000Y-104400000D03*
%TO.P,Traffic_1,M2*%
X33500000Y-104400000D03*
%TD*%
D16*
%TO.P,Vol_2,1,A*%
%TO.N,GND*%
X82500000Y-60600000D03*
%TO.P,Vol_2,2,S*%
%TO.N,Vol_02*%
X85000000Y-60600000D03*
%TO.P,Vol_2,3,E*%
%TO.N,3v3*%
X87500000Y-60600000D03*
D17*
%TO.P,Vol_2,M1*%
%TO.N,N/C*%
X89500000Y-53600000D03*
%TO.P,Vol_2,M2*%
X80500000Y-53600000D03*
%TD*%
D18*
%TO.P,TRIG1,P$1,2*%
%TO.N,Net-(TRIG1-2)*%
X13970000Y-10500000D03*
%TO.P,TRIG1,P$2,3*%
%TO.N,unconnected-(TRIG1-3-PadP$2)*%
X13970000Y-19000000D03*
%TO.P,TRIG1,P$3,1*%
%TO.N,GND*%
X13970000Y-22000000D03*
%TD*%
D16*
%TO.P,Pitch_1,1,A*%
%TO.N,GND*%
X15500000Y-60600000D03*
%TO.P,Pitch_1,2,S*%
%TO.N,Pitch1*%
X18000000Y-60600000D03*
%TO.P,Pitch_1,3,E*%
%TO.N,3v3*%
X20500000Y-60600000D03*
D17*
%TO.P,Pitch_1,M1*%
%TO.N,N/C*%
X22500000Y-53600000D03*
%TO.P,Pitch_1,M2*%
X13500000Y-53600000D03*
%TD*%
D16*
%TO.P,Vol_3,1,A*%
%TO.N,GND*%
X129500000Y-60600000D03*
%TO.P,Vol_3,2,S*%
%TO.N,Vol_03*%
X132000000Y-60600000D03*
%TO.P,Vol_3,3,E*%
%TO.N,3v3*%
X134500000Y-60600000D03*
D17*
%TO.P,Vol_3,M1*%
%TO.N,N/C*%
X136500000Y-53600000D03*
%TO.P,Vol_3,M2*%
X127500000Y-53600000D03*
%TD*%
D16*
%TO.P,Shape_1,1,A*%
%TO.N,GND*%
X15500000Y-86000000D03*
%TO.P,Shape_1,2,S*%
%TO.N,Shape1*%
X18000000Y-86000000D03*
%TO.P,Shape_1,3,E*%
%TO.N,3v3*%
X20500000Y-86000000D03*
D17*
%TO.P,Shape_1,M1*%
%TO.N,N/C*%
X22500000Y-79000000D03*
%TO.P,Shape_1,M2*%
X13500000Y-79000000D03*
%TD*%
D18*
%TO.P,TRIG2,P$1,2*%
%TO.N,Net-(TRIG2-2)*%
X44450000Y-10500000D03*
%TO.P,TRIG2,P$2,3*%
%TO.N,unconnected-(TRIG2-3-PadP$2)*%
X44450000Y-19000000D03*
%TO.P,TRIG2,P$3,1*%
%TO.N,GND*%
X44450000Y-22000000D03*
%TD*%
D16*
%TO.P,Motion_3,1,A*%
%TO.N,GND*%
X109500000Y-111400000D03*
%TO.P,Motion_3,2,S*%
%TO.N,Motion3*%
X112000000Y-111400000D03*
%TO.P,Motion_3,3,E*%
%TO.N,3v3*%
X114500000Y-111400000D03*
D17*
%TO.P,Motion_3,M1*%
%TO.N,N/C*%
X116500000Y-104400000D03*
%TO.P,Motion_3,M2*%
X107500000Y-104400000D03*
%TD*%
D16*
%TO.P,Traffic_3,1,A*%
%TO.N,GND*%
X129500000Y-111400000D03*
%TO.P,Traffic_3,2,S*%
%TO.N,Traffic3*%
X132000000Y-111400000D03*
%TO.P,Traffic_3,3,E*%
%TO.N,3v3*%
X134500000Y-111400000D03*
D17*
%TO.P,Traffic_3,M1*%
%TO.N,N/C*%
X136500000Y-104400000D03*
%TO.P,Traffic_3,M2*%
X127500000Y-104400000D03*
%TD*%
D16*
%TO.P,Shape_2,1,A*%
%TO.N,GND*%
X62500000Y-86000000D03*
%TO.P,Shape_2,2,S*%
%TO.N,Shape2*%
X65000000Y-86000000D03*
%TO.P,Shape_2,3,E*%
%TO.N,3v3*%
X67500000Y-86000000D03*
D17*
%TO.P,Shape_2,M1*%
%TO.N,N/C*%
X69500000Y-79000000D03*
%TO.P,Shape_2,M2*%
X60500000Y-79000000D03*
%TD*%
D16*
%TO.P,Pitch_3,1,A*%
%TO.N,GND*%
X109500000Y-60600000D03*
%TO.P,Pitch_3,2,S*%
%TO.N,Pitch3*%
X112000000Y-60600000D03*
%TO.P,Pitch_3,3,E*%
%TO.N,3v3*%
X114500000Y-60600000D03*
D17*
%TO.P,Pitch_3,M1*%
%TO.N,N/C*%
X116500000Y-53600000D03*
%TO.P,Pitch_3,M2*%
X107500000Y-53600000D03*
%TD*%
D16*
%TO.P,Traffic_2,1,A*%
%TO.N,GND*%
X82500000Y-111400000D03*
%TO.P,Traffic_2,2,S*%
%TO.N,Traffic2*%
X85000000Y-111400000D03*
%TO.P,Traffic_2,3,E*%
%TO.N,3v3*%
X87500000Y-111400000D03*
D17*
%TO.P,Traffic_2,M1*%
%TO.N,N/C*%
X89500000Y-104400000D03*
%TO.P,Traffic_2,M2*%
X80500000Y-104400000D03*
%TD*%
D19*
%TO.P,U2,1,BCK*%
%TO.N,BLCK*%
X53000000Y-52625000D03*
%TO.P,U2,2,WS*%
%TO.N,WS*%
X53000000Y-53275000D03*
%TO.P,U2,3,DIN*%
%TO.N,DIN*%
X53000000Y-53925000D03*
%TO.P,U2,4,GND*%
%TO.N,GND*%
X53000000Y-54575000D03*
%TO.P,U2,5,VDD*%
%TO.N,Net-(U2-VDD)*%
X48600000Y-54575000D03*
%TO.P,U2,6,LCH*%
%TO.N,Net-(U2-LCH)*%
X48600000Y-53925000D03*
%TO.P,U2,7,NC*%
%TO.N,unconnected-(U2-NC-Pad7)*%
X48600000Y-53275000D03*
%TO.P,U2,8,RCH*%
%TO.N,Net-(U2-RCH)*%
X48600000Y-52625000D03*
%TD*%
D20*
%TO.P,T2,1,C*%
%TO.N,Trig_2*%
X58490400Y-13247600D03*
%TO.P,T2,2,B*%
%TO.N,Net-(D2-K)*%
X59760400Y-11342600D03*
%TO.P,T2,3,E*%
%TO.N,GND*%
X61030400Y-13247600D03*
%TD*%
D11*
%TO.P,D2,1,K*%
%TO.N,Net-(D2-K)*%
X55950400Y-18327600D03*
D13*
%TO.P,D2,2,A*%
%TO.N,GND*%
X63570400Y-18327600D03*
%TD*%
D12*
%TO.P,C7,1*%
%TO.N,Net-(U2-VDD)*%
X144879800Y-44388700D03*
D13*
%TO.P,C7,2*%
%TO.N,GND*%
X137379800Y-44388700D03*
%TD*%
D21*
%TO.P,R5,1,1*%
%TO.N,Trig_2*%
X105410000Y-33280000D03*
%TO.P,R5,2,2*%
%TO.N,3v3*%
X97790000Y-33280000D03*
%TD*%
%TO.P,R3,1,1*%
%TO.N,Net-(TRIG2-2)*%
X86680000Y-33280000D03*
%TO.P,R3,2,2*%
%TO.N,Net-(D2-K)*%
X79060000Y-33280000D03*
%TD*%
D12*
%TO.P,C8,1*%
%TO.N,Net-(U2-LCH)*%
X144907300Y-32357100D03*
D13*
%TO.P,C8,2*%
%TO.N,LeftAudio*%
X137407300Y-32357100D03*
%TD*%
D21*
%TO.P,R1,1,1*%
%TO.N,Net-(TRIG1-2)*%
X86680000Y-25660000D03*
%TO.P,R1,2,2*%
%TO.N,Net-(D3-K)*%
X79060000Y-25660000D03*
%TD*%
D12*
%TO.P,C6,1*%
%TO.N,Net-(U2-VDD)*%
X144780000Y-26690000D03*
D13*
%TO.P,C6,2*%
%TO.N,GND*%
X137280000Y-26690000D03*
%TD*%
D20*
%TO.P,T1,1,C*%
%TO.N,Trig_1*%
X28227600Y-13604300D03*
%TO.P,T1,2,B*%
%TO.N,Net-(D3-K)*%
X29497600Y-11699300D03*
%TO.P,T1,3,E*%
%TO.N,GND*%
X30767600Y-13604300D03*
%TD*%
D21*
%TO.P,R7,1,1*%
%TO.N,Trig_3*%
X105410000Y-40900000D03*
%TO.P,R7,2,2*%
%TO.N,3v3*%
X97790000Y-40900000D03*
%TD*%
%TO.P,R4,1*%
%TO.N,3v3*%
X93980000Y-29470000D03*
%TO.P,R4,2*%
%TO.N,Net-(U2-VDD)*%
X93980000Y-37090000D03*
%TD*%
D11*
%TO.P,U3,1,GND*%
%TO.N,GND*%
X66040000Y-43440000D03*
D12*
%TO.P,U3,2,0_RX1_CRX2_CS1*%
%TO.N,unconnected-(U3-0_RX1_CRX2_CS1-Pad2)*%
X63500000Y-43440000D03*
%TO.P,U3,3,1_TX1_CTX2_MISO1*%
%TO.N,Trig_1*%
X60960000Y-43440000D03*
%TO.P,U3,4,2_OUT2*%
%TO.N,Trig_2*%
X58420000Y-43440000D03*
%TO.P,U3,5,3_LRCLK2*%
%TO.N,Trig_3*%
X55880000Y-43440000D03*
%TO.P,U3,6,4_BCLK2*%
%TO.N,unconnected-(U3-4_BCLK2-Pad6)*%
X53340000Y-43440000D03*
%TO.P,U3,7,5_IN2*%
%TO.N,DIN*%
X50800000Y-43440000D03*
%TO.P,U3,8,6_OUT1D*%
%TO.N,unconnected-(U3-6_OUT1D-Pad8)*%
X48260000Y-43440000D03*
%TO.P,U3,9,7_RX2_OUT1A*%
%TO.N,unconnected-(U3-7_RX2_OUT1A-Pad9)*%
X45720000Y-43440000D03*
%TO.P,U3,10,8_TX2_IN1*%
%TO.N,unconnected-(U3-8_TX2_IN1-Pad10)*%
X43180000Y-43440000D03*
%TO.P,U3,11,9_OUT1C*%
%TO.N,unconnected-(U3-9_OUT1C-Pad11)*%
X40640000Y-43440000D03*
%TO.P,U3,12,10_CS_MQSR*%
%TO.N,unconnected-(U3-10_CS_MQSR-Pad12)*%
X38100000Y-43440000D03*
%TO.P,U3,13,11_MOSI_CTX1*%
%TO.N,unconnected-(U3-11_MOSI_CTX1-Pad13)*%
X35560000Y-43440000D03*
%TO.P,U3,14,12_MISO_MQSL*%
%TO.N,unconnected-(U3-12_MISO_MQSL-Pad14)*%
X33020000Y-43440000D03*
%TO.P,U3,15,3V3*%
%TO.N,3v3*%
X30480000Y-43440000D03*
%TO.P,U3,16,24_A10_TX6_SCL2*%
%TO.N,Motion2*%
X27940000Y-43440000D03*
%TO.P,U3,17,25_A11_RX6_SDA2*%
%TO.N,Motion3*%
X25400000Y-43440000D03*
%TO.P,U3,18,26_A12_MOSI1*%
%TO.N,Traffic1*%
X22860000Y-43440000D03*
%TO.P,U3,19,27_A13_SCK1*%
%TO.N,Traffic2*%
X20320000Y-43440000D03*
%TO.P,U3,20,28_RX7*%
%TO.N,WS*%
X17780000Y-43440000D03*
%TO.P,U3,21,29_TX7*%
%TO.N,BLCK*%
X15240000Y-43440000D03*
%TO.P,U3,22,30_CRX3*%
%TO.N,unconnected-(U3-30_CRX3-Pad22)*%
X12700000Y-43440000D03*
%TO.P,U3,23,31_CTX3*%
%TO.N,unconnected-(U3-31_CTX3-Pad23)*%
X10160000Y-43440000D03*
%TO.P,U3,24,32_OUT1B*%
%TO.N,unconnected-(U3-32_OUT1B-Pad24)*%
X7620000Y-43440000D03*
%TO.P,U3,25,33_MCLK2*%
%TO.N,unconnected-(U3-33_MCLK2-Pad25)*%
X7620000Y-28200000D03*
%TO.P,U3,26,34_RX8*%
%TO.N,unconnected-(U3-34_RX8-Pad26)*%
X10160000Y-28200000D03*
%TO.P,U3,27,35_TX8*%
%TO.N,unconnected-(U3-35_TX8-Pad27)*%
X12700000Y-28200000D03*
%TO.P,U3,28,36_CS*%
%TO.N,unconnected-(U3-36_CS-Pad28)*%
X15240000Y-28200000D03*
%TO.P,U3,29,37_CS*%
%TO.N,unconnected-(U3-37_CS-Pad29)*%
X17780000Y-28200000D03*
%TO.P,U3,30,38_A14_CS1_IN1*%
%TO.N,Traffic3*%
X20320000Y-28200000D03*
%TO.P,U3,31,39_A15_MISO1_OUT1A*%
%TO.N,Vol_01*%
X22860000Y-28200000D03*
%TO.P,U3,32,40_A16*%
%TO.N,Vol_02*%
X25400000Y-28200000D03*
%TO.P,U3,33,41_A17*%
%TO.N,Vol_03*%
X27940000Y-28200000D03*
%TO.P,U3,34,GND*%
%TO.N,GND*%
X30480000Y-28200000D03*
%TO.P,U3,35,13_SCK_LED*%
%TO.N,unconnected-(U3-13_SCK_LED-Pad35)*%
X33020000Y-28200000D03*
%TO.P,U3,36,14_A0_TX3_SPDIF_OUT*%
%TO.N,Pitch1*%
X35560000Y-28200000D03*
%TO.P,U3,37,15_A1_RX3_SPDIF_IN*%
%TO.N,Pitch2*%
X38100000Y-28200000D03*
%TO.P,U3,38,16_A2_RX4_SCL1*%
%TO.N,Pitch3*%
X40640000Y-28200000D03*
%TO.P,U3,39,17_A3_TX4_SDA1*%
%TO.N,Shape1*%
X43180000Y-28200000D03*
%TO.P,U3,40,18_A4_SDA*%
%TO.N,Shape2*%
X45720000Y-28200000D03*
%TO.P,U3,41,19_A5_SCL*%
%TO.N,Shape3*%
X48260000Y-28200000D03*
%TO.P,U3,42,20_A6_TX5_LRCLK1*%
%TO.N,Temp1*%
X50800000Y-28200000D03*
%TO.P,U3,43,21_A7_RX5_BCLK1*%
%TO.N,Temp2*%
X53340000Y-28200000D03*
%TO.P,U3,44,22_A8_CTX1*%
%TO.N,Temp3*%
X55880000Y-28200000D03*
%TO.P,U3,45,23_A9_CRX1_MCLK1*%
%TO.N,Motion1*%
X58420000Y-28200000D03*
%TO.P,U3,46,3V3*%
%TO.N,3v3*%
X60960000Y-28200000D03*
%TO.P,U3,47,GND*%
%TO.N,GND*%
X63500000Y-28200000D03*
%TO.P,U3,48,VIN*%
%TO.N,Net-(Connect_For_Euro_Power1-B)*%
X66040000Y-28200000D03*
%TO.P,U3,49,VUSB*%
%TO.N,unconnected-(U3-VUSB-Pad49)*%
X63500000Y-30740000D03*
%TO.P,U3,50,VBAT*%
%TO.N,unconnected-(U3-VBAT-Pad50)*%
X20320000Y-40900000D03*
%TO.P,U3,51,3V3*%
%TO.N,unconnected-(U3-3V3-Pad51)*%
X20320000Y-38360000D03*
%TO.P,U3,52,GND*%
%TO.N,unconnected-(U3-GND-Pad52)*%
X20320000Y-35820000D03*
%TO.P,U3,53,PROGRAM*%
%TO.N,unconnected-(U3-PROGRAM-Pad53)*%
X20320000Y-33280000D03*
%TO.P,U3,54,ON_OFF*%
%TO.N,unconnected-(U3-ON_OFF-Pad54)*%
X20320000Y-30740000D03*
D11*
%TO.P,U3,55,5V*%
%TO.N,unconnected-(U3-5V-Pad55)*%
X59740800Y-40389200D03*
D12*
%TO.P,U3,56,D-*%
%TO.N,unconnected-(U3-D--Pad56)*%
X57200800Y-40389200D03*
%TO.P,U3,57,D+*%
%TO.N,unconnected-(U3-D+-Pad57)*%
X54660800Y-40389200D03*
%TO.P,U3,58,GND*%
%TO.N,unconnected-(U3-GND-Pad58)*%
X52120800Y-40389200D03*
%TO.P,U3,59,GND*%
%TO.N,unconnected-(U3-GND-Pad59)*%
X49580800Y-40389200D03*
D22*
%TO.P,U3,60,R+*%
%TO.N,unconnected-(U3-R+-Pad60)*%
X53070000Y-30638400D03*
D23*
%TO.P,U3,61,LED*%
%TO.N,unconnected-(U3-LED-Pad61)*%
X53070000Y-32638400D03*
%TO.P,U3,62,T-*%
%TO.N,unconnected-(U3-T--Pad62)*%
X53070000Y-34638400D03*
%TO.P,U3,63,T+*%
%TO.N,unconnected-(U3-T+-Pad63)*%
X51070000Y-34638400D03*
%TO.P,U3,64,GND*%
%TO.N,unconnected-(U3-GND-Pad64)*%
X51070000Y-32638400D03*
%TO.P,U3,65,R-*%
%TO.N,unconnected-(U3-R--Pad65)*%
X51070000Y-30638400D03*
%TO.P,U3,66,D-*%
%TO.N,unconnected-(U3-D--Pad66)*%
X65310000Y-34550000D03*
%TO.P,U3,67,D+*%
%TO.N,unconnected-(U3-D+-Pad67)*%
X65310000Y-37090000D03*
%TD*%
D12*
%TO.P,C9,1*%
%TO.N,Net-(U2-RCH)*%
X144707900Y-38339600D03*
D13*
%TO.P,C9,2*%
%TO.N,RightAudio*%
X137207900Y-38339600D03*
%TD*%
D11*
%TO.P,D3,1,K*%
%TO.N,Net-(D3-K)*%
X25687600Y-18684300D03*
D13*
%TO.P,D3,2,A*%
%TO.N,GND*%
X33307600Y-18684300D03*
%TD*%
D21*
%TO.P,R2,1,1*%
%TO.N,Trig_1*%
X105410000Y-28200000D03*
%TO.P,R2,2,2*%
%TO.N,3v3*%
X97790000Y-28200000D03*
%TD*%
D20*
%TO.P,T3,1,C*%
%TO.N,Trig_3*%
X89400100Y-13247600D03*
%TO.P,T3,2,B*%
%TO.N,Net-(D5-K)*%
X90670100Y-11342600D03*
%TO.P,T3,3,E*%
%TO.N,GND*%
X91940100Y-13247600D03*
%TD*%
D21*
%TO.P,R6,1,1*%
%TO.N,Net-(TRIG3-2)*%
X86680000Y-40900000D03*
%TO.P,R6,2,2*%
%TO.N,Net-(D5-K)*%
X79060000Y-40900000D03*
%TD*%
D11*
%TO.P,D5,1,K*%
%TO.N,Net-(D5-K)*%
X86949900Y-17815800D03*
D13*
%TO.P,D5,2,A*%
%TO.N,GND*%
X94569900Y-17815800D03*
%TD*%
D24*
%TO.N,Vol_03*%
X46368600Y-46163700D03*
%TO.N,Vol_02*%
X46351600Y-47741200D03*
%TO.N,Net-(Connect_For_Euro_Power1-B)*%
X80680900Y-26367900D03*
%TO.N,WS*%
X46423100Y-50094600D03*
%TO.N,BLCK*%
X46955200Y-50626800D03*
%TO.N,Traffic3*%
X36942100Y-52129500D03*
%TO.N,Temp3*%
X65693700Y-57286800D03*
%TO.N,Temp2*%
X64794500Y-39190200D03*
%TO.N,Net-(U2-RCH)*%
X51312100Y-53240200D03*
%TO.N,Net-(U2-LCH)*%
X50734900Y-52753000D03*
%TO.N,Net-(U2-VDD)*%
X50225300Y-51579600D03*
%TD*%
D25*
%TO.N,Net-(D4-A)*%
X114300000Y-26364600D02*
X114300000Y-31750000D01*
X119242100Y-21422500D02*
X114300000Y-26364600D01*
X119380000Y-21422500D02*
X119242100Y-21422500D01*
X119380000Y-20320000D02*
X119380000Y-21422500D01*
%TO.N,+5V*%
X124091900Y-40698200D02*
X124091900Y-39988500D01*
X113117300Y-11283800D02*
X114169900Y-11283800D01*
X124180600Y-39988500D02*
X124091900Y-39988500D01*
X127190500Y-36978600D02*
X124180600Y-39988500D01*
X127190500Y-33017100D02*
X127190500Y-36978600D01*
X120650000Y-17763900D02*
X114169900Y-11283800D01*
X120650000Y-20639200D02*
X120650000Y-17763900D01*
X121433400Y-21422600D02*
X120650000Y-20639200D01*
X122042800Y-21422600D02*
X121433400Y-21422600D01*
X125304700Y-24684500D02*
X122042800Y-21422600D01*
X125304700Y-31131300D02*
X125304700Y-24684500D01*
X127190500Y-33017100D02*
X125304700Y-31131300D01*
%TO.N,+12V*%
X124091900Y-42998200D02*
X124091900Y-42288500D01*
X124180600Y-42288500D02*
X124091900Y-42288500D01*
X128251700Y-38217400D02*
X124180600Y-42288500D01*
X128251700Y-29191700D02*
X128251700Y-38217400D01*
X127080000Y-28020000D02*
X128251700Y-29191700D01*
%TO.N,Net-(D3-K)*%
X29497600Y-13821800D02*
X29497600Y-11699300D01*
X25687600Y-17631800D02*
X29497600Y-13821800D01*
X25687600Y-18684300D02*
X25687600Y-17631800D01*
%TO.N,Net-(D2-K)*%
X55950400Y-14238400D02*
X55950400Y-18327600D01*
X58846200Y-11342600D02*
X55950400Y-14238400D01*
X59760400Y-11342600D02*
X58846200Y-11342600D01*
X65697800Y-11342600D02*
X59760400Y-11342600D01*
X74855200Y-20500000D02*
X65697800Y-11342600D01*
X74998300Y-20500000D02*
X74855200Y-20500000D01*
X76381000Y-21882700D02*
X74998300Y-20500000D01*
X76381000Y-30601000D02*
X76381000Y-21882700D01*
X79060000Y-33280000D02*
X76381000Y-30601000D01*
%TO.N,Net-(D5-K)*%
X90670100Y-11342600D02*
X89755900Y-11342600D01*
X86949900Y-14148600D02*
X86949900Y-17815800D01*
X89755900Y-11342600D02*
X86949900Y-14148600D01*
X87686100Y-19604500D02*
X86949900Y-18868300D01*
X87686100Y-41289200D02*
X87686100Y-19604500D01*
X87064200Y-41911100D02*
X87686100Y-41289200D01*
X80071100Y-41911100D02*
X87064200Y-41911100D01*
X79060000Y-40900000D02*
X80071100Y-41911100D01*
X86949900Y-17815800D02*
X86949900Y-18868300D01*
%TO.N,Vol_03*%
X44232600Y-44027700D02*
X46368600Y-46163700D01*
X44232600Y-42994200D02*
X44232600Y-44027700D01*
X42565500Y-41327100D02*
X44232600Y-42994200D01*
X41067100Y-41327100D02*
X42565500Y-41327100D01*
X27940000Y-28200000D02*
X41067100Y-41327100D01*
%TO.N,Vol_02*%
X45948700Y-47741200D02*
X46351600Y-47741200D01*
X41910100Y-43702600D02*
X45948700Y-47741200D01*
X41910100Y-43213200D02*
X41910100Y-43702600D01*
X40594000Y-41897100D02*
X41910100Y-43213200D01*
X39097100Y-41897100D02*
X40594000Y-41897100D01*
X25400000Y-28200000D02*
X39097100Y-41897100D01*
%TO.N,Vol_01*%
X38000000Y-52405800D02*
X38000000Y-60600000D01*
X36616500Y-51022300D02*
X38000000Y-52405800D01*
X36573700Y-51022300D02*
X36616500Y-51022300D01*
X29345200Y-43793800D02*
X36573700Y-51022300D01*
X29345200Y-34685200D02*
X29345200Y-43793800D01*
X22860000Y-28200000D02*
X29345200Y-34685200D01*
%TO.N,Net-(Connect_For_Euro_Power1-B)*%
X100739400Y-12805300D02*
X113117300Y-12805300D01*
X98347700Y-10413600D02*
X100739400Y-12805300D01*
X90123300Y-10413600D02*
X98347700Y-10413600D01*
X80680900Y-19856000D02*
X90123300Y-10413600D01*
X80680900Y-26367900D02*
X80680900Y-19856000D01*
%TO.N,DIN*%
X53000000Y-53925000D02*
X53977500Y-53925000D01*
X53977500Y-46617500D02*
X53977500Y-53925000D01*
X50800000Y-43440000D02*
X53977500Y-46617500D01*
%TO.N,WS*%
X53000000Y-53275000D02*
X52022500Y-53275000D01*
X46402700Y-50115000D02*
X46423100Y-50094600D01*
X46402700Y-50855600D02*
X46402700Y-50115000D01*
X46726400Y-51179300D02*
X46402700Y-50855600D01*
X47184100Y-51179300D02*
X46726400Y-51179300D01*
X47349400Y-51014000D02*
X47184100Y-51179300D01*
X50443600Y-51014000D02*
X47349400Y-51014000D01*
X51639900Y-52210300D02*
X50443600Y-51014000D01*
X51639900Y-52786400D02*
X51639900Y-52210300D01*
X52022500Y-53169000D02*
X51639900Y-52786400D01*
X52022500Y-53275000D02*
X52022500Y-53169000D01*
%TO.N,BLCK*%
X53000000Y-52625000D02*
X52022500Y-52625000D01*
X50566300Y-50626800D02*
X46955200Y-50626800D01*
X52022500Y-52083000D02*
X50566300Y-50626800D01*
X52022500Y-52625000D02*
X52022500Y-52083000D01*
%TO.N,Traffic3*%
X28992600Y-44180000D02*
X36942100Y-52129500D01*
X28992600Y-36872600D02*
X28992600Y-44180000D01*
X20320000Y-28200000D02*
X28992600Y-36872600D01*
%TO.N,Traffic2*%
X83843100Y-112556900D02*
X85000000Y-111400000D01*
X60497400Y-112556900D02*
X83843100Y-112556900D01*
X26670100Y-78729600D02*
X60497400Y-112556900D01*
X26670100Y-43215300D02*
X26670100Y-78729600D01*
X25805500Y-42350700D02*
X26670100Y-43215300D01*
X21409300Y-42350700D02*
X25805500Y-42350700D01*
X20320000Y-43440000D02*
X21409300Y-42350700D01*
%TO.N,Traffic1*%
X38000000Y-103951800D02*
X38000000Y-111400000D01*
X24152600Y-90104400D02*
X38000000Y-103951800D01*
X24152600Y-44732600D02*
X24152600Y-90104400D01*
X22860000Y-43440000D02*
X24152600Y-44732600D01*
%TO.N,Temp3*%
X65693700Y-52232700D02*
X65693700Y-57286800D01*
X57150100Y-43689100D02*
X65693700Y-52232700D01*
X57150100Y-43207200D02*
X57150100Y-43689100D01*
X56321200Y-42378300D02*
X57150100Y-43207200D01*
X55092400Y-42378300D02*
X56321200Y-42378300D01*
X53604100Y-40890000D02*
X55092400Y-42378300D01*
X53604100Y-37933700D02*
X53604100Y-40890000D01*
X55880000Y-35657800D02*
X53604100Y-37933700D01*
X55880000Y-28200000D02*
X55880000Y-35657800D01*
%TO.N,Temp2*%
X83750000Y-84750000D02*
X85000000Y-86000000D01*
X83750000Y-60049000D02*
X83750000Y-84750000D01*
X77900800Y-54199800D02*
X83750000Y-60049000D01*
X77900800Y-52296500D02*
X77900800Y-54199800D01*
X64794500Y-39190200D02*
X77900800Y-52296500D01*
%TO.N,Temp1*%
X38000000Y-64708100D02*
X38000000Y-86000000D01*
X45385900Y-57322200D02*
X38000000Y-64708100D01*
X45385900Y-49624900D02*
X45385900Y-57322200D01*
X46921200Y-48089600D02*
X45385900Y-49624900D01*
X46921200Y-45781100D02*
X46921200Y-48089600D01*
X46798200Y-45658100D02*
X46921200Y-45781100D01*
X46798200Y-43029700D02*
X46798200Y-45658100D01*
X44651200Y-40882700D02*
X46798200Y-43029700D01*
X44651200Y-27723100D02*
X44651200Y-40882700D01*
X45254500Y-27119800D02*
X44651200Y-27723100D01*
X49719800Y-27119800D02*
X45254500Y-27119800D01*
X50800000Y-28200000D02*
X49719800Y-27119800D01*
%TO.N,Shape2*%
X65000000Y-72470900D02*
X65000000Y-86000000D01*
X45870500Y-53341400D02*
X65000000Y-72470900D01*
X45870500Y-49865900D02*
X45870500Y-53341400D01*
X47273700Y-48462700D02*
X45870500Y-49865900D01*
X47273700Y-45635100D02*
X47273700Y-48462700D01*
X47150800Y-45512200D02*
X47273700Y-45635100D01*
X47150800Y-29630800D02*
X47150800Y-45512200D01*
X45720000Y-28200000D02*
X47150800Y-29630800D01*
%TO.N,Shape1*%
X19250000Y-84750000D02*
X18000000Y-86000000D01*
X19250000Y-27734500D02*
X19250000Y-84750000D01*
X19881500Y-27103000D02*
X19250000Y-27734500D01*
X28353300Y-27103000D02*
X19881500Y-27103000D01*
X29210000Y-27959700D02*
X28353300Y-27103000D01*
X29210000Y-28447300D02*
X29210000Y-27959700D01*
X30015400Y-29252700D02*
X29210000Y-28447300D01*
X42127300Y-29252700D02*
X30015400Y-29252700D01*
X43180000Y-28200000D02*
X42127300Y-29252700D01*
%TO.N,Trig_3*%
X89400100Y-22239000D02*
X89400100Y-13247600D01*
X105410000Y-38248900D02*
X89400100Y-22239000D01*
X105410000Y-40900000D02*
X105410000Y-38248900D01*
%TO.N,Net-(TRIG3-2)*%
X80067200Y-15637200D02*
X74930000Y-10500000D01*
X80067200Y-34287200D02*
X80067200Y-15637200D01*
X86680000Y-40900000D02*
X80067200Y-34287200D01*
%TO.N,Trig_2*%
X57358900Y-15293300D02*
X58490400Y-14161800D01*
X57358900Y-33272500D02*
X57358900Y-15293300D01*
X58420000Y-34333600D02*
X57358900Y-33272500D01*
X58420000Y-43440000D02*
X58420000Y-34333600D01*
X58490400Y-13247600D02*
X58490400Y-14161800D01*
%TO.N,Motion2*%
X27940000Y-55277500D02*
X27940000Y-43440000D01*
X36750000Y-64087500D02*
X27940000Y-55277500D01*
X36750000Y-86299000D02*
X36750000Y-64087500D01*
X59499600Y-109048600D02*
X36750000Y-86299000D01*
X62648600Y-109048600D02*
X59499600Y-109048600D01*
X65000000Y-111400000D02*
X62648600Y-109048600D01*
%TO.N,3v3*%
X114500000Y-60600000D02*
X114500000Y-86000000D01*
X97790000Y-33280000D02*
X97790000Y-40900000D01*
X110811300Y-56911300D02*
X114500000Y-60600000D01*
X104391300Y-56911300D02*
X110811300Y-56911300D01*
X97790000Y-50310000D02*
X104391300Y-56911300D01*
X97790000Y-40900000D02*
X97790000Y-50310000D01*
X40500000Y-53460000D02*
X30480000Y-43440000D01*
X40500000Y-60600000D02*
X40500000Y-53460000D01*
X20500000Y-111400000D02*
X20500000Y-86000000D01*
X20500000Y-86000000D02*
X20500000Y-60600000D01*
X97790000Y-50310000D02*
X87500000Y-60600000D01*
X87500000Y-60600000D02*
X87500000Y-86000000D01*
%TO.N,RightAudio*%
X138480100Y-13090100D02*
X135890000Y-10500000D01*
X138480100Y-36014900D02*
X138480100Y-13090100D01*
X137207900Y-37287100D02*
X138480100Y-36014900D01*
X137207900Y-38339600D02*
X137207900Y-37287100D01*
%TO.N,Net-(U2-RCH)*%
X48600000Y-52625000D02*
X49577500Y-52625000D01*
X51287400Y-53215500D02*
X51312100Y-53240200D01*
X51287400Y-52470700D02*
X51287400Y-53215500D01*
X51017100Y-52200400D02*
X51287400Y-52470700D01*
X50002100Y-52200400D02*
X51017100Y-52200400D01*
X49577500Y-52625000D02*
X50002100Y-52200400D01*
%TO.N,LeftAudio*%
X105463000Y-10447000D02*
X105410000Y-10500000D01*
X121652700Y-10447000D02*
X105463000Y-10447000D01*
X124645100Y-13439400D02*
X121652700Y-10447000D01*
X124645100Y-18542400D02*
X124645100Y-13439400D01*
X137407300Y-31304600D02*
X124645100Y-18542400D01*
X137407300Y-32357100D02*
X137407300Y-31304600D01*
%TO.N,Net-(U2-LCH)*%
X48600000Y-53925000D02*
X49577500Y-53925000D01*
X49577500Y-53910400D02*
X50734900Y-52753000D01*
X49577500Y-53925000D02*
X49577500Y-53910400D01*
%TO.N,Net-(U2-VDD)*%
X47622500Y-52246800D02*
X47622500Y-54575000D01*
X48289700Y-51579600D02*
X47622500Y-52246800D01*
X50225300Y-51579600D02*
X48289700Y-51579600D01*
X48600000Y-54575000D02*
X47622500Y-54575000D01*
%TO.N,GND*%
X132190500Y-38146900D02*
X132190500Y-33017100D01*
X137379800Y-43336200D02*
X132190500Y-38146900D01*
X137379800Y-44388700D02*
X137379800Y-43336200D01*
X91968400Y-14161800D02*
X91940100Y-14161800D01*
X94569900Y-16763300D02*
X91968400Y-14161800D01*
X94569900Y-17815800D02*
X94569900Y-16763300D01*
X91940100Y-13247600D02*
X91940100Y-14161800D01*
X129500000Y-53321000D02*
X137379800Y-45441200D01*
X129500000Y-60600000D02*
X129500000Y-53321000D01*
X137379800Y-44388700D02*
X137379800Y-45441200D01*
X129500000Y-86000000D02*
X129500000Y-60600000D01*
X132190500Y-28130500D02*
X132190500Y-33017100D01*
X132080000Y-28020000D02*
X132190500Y-28130500D01*
X121920000Y-22860000D02*
X121920000Y-25400000D01*
X37675800Y-22000000D02*
X34360100Y-18684300D01*
X44450000Y-22000000D02*
X37675800Y-22000000D01*
X33307600Y-18684300D02*
X34360100Y-18684300D01*
X33307600Y-18684300D02*
X33307600Y-19736800D01*
X61030400Y-14735100D02*
X61030400Y-13247600D01*
X63570400Y-17275100D02*
X61030400Y-14735100D01*
X63570400Y-18327600D02*
X63570400Y-17275100D01*
X14534400Y-22564400D02*
X13970000Y-22000000D01*
X30480000Y-22564400D02*
X14534400Y-22564400D01*
X30480000Y-28200000D02*
X30480000Y-22564400D01*
X30480000Y-22564400D02*
X33307600Y-19736800D01*
X124091900Y-38398200D02*
X124091900Y-37688500D01*
X121920000Y-25400000D02*
X121920000Y-27940000D01*
X124091900Y-31076500D02*
X124091900Y-37688500D01*
X122057900Y-29042500D02*
X124091900Y-31076500D01*
X121920000Y-29042500D02*
X122057900Y-29042500D01*
X121920000Y-27940000D02*
X121920000Y-29042500D01*
X63570400Y-18327600D02*
X63570400Y-19380100D01*
X66040000Y-43440000D02*
X66040000Y-42387500D01*
X128354900Y-110254900D02*
X110645100Y-110254900D01*
X129500000Y-111400000D02*
X128354900Y-110254900D01*
X110645100Y-110254900D02*
X110645100Y-87131700D01*
X110631700Y-87131700D02*
X110645100Y-87131700D01*
X109500000Y-86000000D02*
X110631700Y-87131700D01*
X128368300Y-87131700D02*
X129500000Y-86000000D01*
X110645100Y-87131700D02*
X128368300Y-87131700D01*
X82500000Y-86000000D02*
X82500000Y-60600000D01*
X110645100Y-110254900D02*
X109500000Y-111400000D01*
X108393700Y-110293700D02*
X83606300Y-110293700D01*
X109500000Y-111400000D02*
X108393700Y-110293700D01*
X83606300Y-110293700D02*
X82500000Y-111400000D01*
X83606300Y-89287900D02*
X83606300Y-110293700D01*
X81409200Y-87090800D02*
X83606300Y-89287900D01*
X82500000Y-86000000D02*
X81409200Y-87090800D01*
X63590800Y-87090800D02*
X62500000Y-86000000D01*
X81409200Y-87090800D02*
X63590800Y-87090800D01*
X64242000Y-40589500D02*
X66040000Y-42387500D01*
X64242000Y-33311400D02*
X64242000Y-40589500D01*
X64571800Y-32981600D02*
X64242000Y-33311400D01*
X64571800Y-29271800D02*
X64571800Y-32981600D01*
X63500000Y-28200000D02*
X64571800Y-29271800D01*
X63570400Y-22000000D02*
X63570400Y-19380100D01*
X63500000Y-22070400D02*
X63570400Y-22000000D01*
X63500000Y-28200000D02*
X63500000Y-22070400D01*
X63570400Y-22000000D02*
X74930000Y-22000000D01*
X60002500Y-60600000D02*
X62500000Y-60600000D01*
X53977500Y-54575000D02*
X60002500Y-60600000D01*
X53000000Y-54575000D02*
X53977500Y-54575000D01*
X66040000Y-43440000D02*
X66040000Y-44492500D01*
X66246200Y-44698700D02*
X66040000Y-44492500D01*
X66246200Y-57648200D02*
X66246200Y-44698700D01*
X79548200Y-57648200D02*
X66246200Y-57648200D01*
X82500000Y-60600000D02*
X79548200Y-57648200D01*
X63294400Y-60600000D02*
X62500000Y-60600000D01*
X66246200Y-57648200D02*
X63294400Y-60600000D01*
%TD*%
M02*
